<svg width="348" height="303" viewBox="0 0 348 303" fill="none" xmlns="http://www.w3.org/2000/svg">
<rect x="0.5" width="347" height="303" rx="8" fill="#FFDED0"/>
<path d="M83.7804 243.868L74.8568 58.133C74.8057 57.2672 74.905 56.3981 75.1485 55.5806C75.3921 54.763 75.7745 54.0147 76.2717 53.3829C76.7689 52.7511 77.3701 52.2494 78.0374 51.9096C78.7047 51.5698 79.4235 51.3992 80.1486 51.4086H257.12C258.635 51.4306 260.087 52.1349 261.187 53.3812C262.287 54.6274 262.955 56.324 263.057 58.133L271.973 243.868C272.026 244.733 271.927 245.601 271.685 246.418C271.442 247.235 271.06 247.983 270.563 248.614C270.066 249.246 269.466 249.747 268.799 250.086C268.132 250.425 267.413 250.594 266.689 250.583H89.7101C88.1969 250.563 86.7456 249.861 85.6463 248.616C84.5471 247.371 83.8807 245.675 83.7804 243.868Z" fill="#263238"/>
<path d="M266.687 251H89.7084C88.108 250.974 86.5742 250.229 85.4113 248.912C84.2484 247.596 83.5415 245.805 83.4307 243.893L74.5143 58.1502C74.459 57.2288 74.5642 56.3037 74.8232 55.4335C75.0822 54.5633 75.4893 53.7669 76.0188 53.0948C76.5483 52.4227 77.1886 51.8895 77.8992 51.529C78.6097 51.1685 79.3751 50.9886 80.1468 51.0006H257.118C258.719 51.0244 260.254 51.7688 261.417 53.0856C262.58 54.4023 263.287 56.1949 263.396 58.1068L272.32 243.841C272.374 244.763 272.268 245.688 272.008 246.558C271.749 247.428 271.342 248.224 270.813 248.897C270.284 249.569 269.644 250.103 268.934 250.465C268.224 250.827 267.459 251.009 266.687 251ZM84.1556 243.841C84.252 245.544 84.8805 247.142 85.9161 248.315C86.9518 249.489 88.3185 250.153 89.7446 250.175H266.687C267.364 250.183 268.036 250.023 268.659 249.706C269.282 249.388 269.843 248.919 270.307 248.329C270.772 247.739 271.129 247.04 271.357 246.277C271.585 245.514 271.678 244.702 271.631 243.893L262.715 58.1502C262.616 56.4471 261.986 54.8507 260.949 53.6787C259.912 52.5066 258.544 51.8448 257.118 51.8249H80.1468C79.469 51.8143 78.7967 51.9724 78.1726 52.2893C77.5485 52.6061 76.9863 53.0747 76.5214 53.6653C76.0566 54.2559 75.6994 54.9557 75.4724 55.7203C75.2455 56.4849 75.1537 57.2976 75.203 58.1068L84.1556 243.841Z" fill="#263238"/>
<path d="M85.9464 243.868L77.0228 58.133C76.9717 57.2672 77.071 56.3981 77.3146 55.5806C77.5581 54.763 77.9405 54.0147 78.4377 53.3829C78.9349 52.7511 79.5361 52.2494 80.2034 51.9096C80.8707 51.5698 81.5895 51.3992 82.3146 51.4086H259.286C260.801 51.4306 262.253 52.1349 263.353 53.3812C264.453 54.6274 265.121 56.324 265.223 58.133L274.139 243.868C274.192 244.733 274.093 245.601 273.851 246.418C273.608 247.235 273.226 247.983 272.729 248.614C272.232 249.246 271.632 249.747 270.965 250.086C270.298 250.425 269.579 250.594 268.855 250.583H91.8762C90.3629 250.563 88.9116 249.861 87.8124 248.616C86.7131 247.371 86.0467 245.675 85.9464 243.868Z" fill="white"/>
<path d="M268.853 251H91.8744C90.2752 250.972 88.7432 250.226 87.5819 248.91C86.4206 247.593 85.7146 245.803 85.6039 243.893L76.6803 58.1502C76.6251 57.2288 76.7302 56.3037 76.9892 55.4335C77.2482 54.5633 77.6553 53.7669 78.1848 53.0948C78.7143 52.4227 79.3546 51.8895 80.0652 51.529C80.7758 51.1685 81.5411 50.9886 82.3128 51.0006H259.284C260.885 51.0244 262.42 51.7688 263.583 53.0856C264.746 54.4023 265.453 56.1949 265.562 58.1068L274.486 243.841C274.54 244.763 274.434 245.688 274.174 246.558C273.915 247.428 273.508 248.224 272.979 248.897C272.45 249.569 271.81 250.103 271.1 250.465C270.39 250.827 269.625 251.009 268.853 251ZM82.3128 51.8249C81.635 51.8143 80.9627 51.9724 80.3386 52.2893C79.7145 52.6061 79.1523 53.0747 78.6874 53.6653C78.2226 54.2559 77.8654 54.9557 77.6384 55.7203C77.4115 56.4849 77.3197 57.2976 77.369 58.1068L86.2853 243.841C86.3818 245.544 87.0103 247.142 88.0459 248.315C89.0815 249.489 90.4483 250.153 91.8744 250.175H268.853C269.53 250.183 270.202 250.023 270.825 249.706C271.448 249.388 272.009 248.919 272.473 248.329C272.938 247.739 273.295 247.04 273.523 246.277C273.751 245.514 273.844 244.702 273.797 243.893L264.881 58.1502C264.779 56.4486 264.148 54.8545 263.111 53.6832C262.075 52.5119 260.709 51.8488 259.284 51.8249H82.3128Z" fill="#263238"/>
<path d="M145.431 78.2364H95.9774C95.0785 78.2092 94.2201 77.783 93.569 77.0406C92.9179 76.2982 92.5206 75.2925 92.4544 74.2191C92.4254 73.7062 92.4853 73.1917 92.6303 72.7078C92.7753 72.2239 93.0022 71.781 93.297 71.4071C93.5917 71.0331 93.9478 70.7361 94.3429 70.5347C94.7381 70.3333 95.1637 70.2317 95.5932 70.2365H145.046C145.944 70.2512 146.804 70.6686 147.456 71.4062C148.109 72.1437 148.506 73.1476 148.569 74.2191C148.603 74.7348 148.546 75.2531 148.403 75.7412C148.26 76.2292 148.033 76.6763 147.738 77.0541C147.443 77.4319 147.085 77.732 146.688 77.9356C146.291 78.1391 145.863 78.2416 145.431 78.2364Z" fill="#FF7C44"/>
<path d="M136.349 92.042H96.6386C95.7483 92.026 94.8949 91.6137 94.2449 90.8854C93.5949 90.157 93.1948 89.165 93.1228 88.1027C93.0929 87.5899 93.1518 87.0751 93.2958 86.5908C93.4399 86.1064 93.6661 85.663 93.9601 85.2882C94.2542 84.9134 94.6098 84.6154 95.0046 84.4129C95.3994 84.2104 95.8249 84.1078 96.2544 84.1114H135.958C136.856 84.1263 137.717 84.545 138.37 85.2843C139.022 86.0237 139.419 87.0297 139.481 88.1027C139.504 88.6114 139.441 89.1205 139.294 89.5986C139.147 90.0768 138.92 90.5139 138.627 90.883C138.333 91.252 137.98 91.5453 137.588 91.7446C137.196 91.9439 136.775 92.0451 136.349 92.042Z" fill="#FF7C44"/>
<path d="M155.772 109.863H96.3294C95.745 109.856 95.1849 109.583 94.7623 109.099C94.3397 108.616 94.0863 107.959 94.0532 107.26C94.031 106.926 94.0672 106.591 94.1595 106.274C94.2517 105.958 94.3979 105.668 94.5889 105.424C94.7798 105.179 95.0113 104.984 95.2685 104.852C95.5257 104.72 95.8031 104.654 96.0829 104.657H155.525C156.109 104.667 156.668 104.941 157.091 105.424C157.513 105.907 157.767 106.563 157.801 107.26C157.824 107.594 157.787 107.93 157.695 108.246C157.603 108.563 157.457 108.852 157.266 109.097C157.075 109.342 156.843 109.537 156.586 109.669C156.329 109.801 156.052 109.867 155.772 109.863Z" fill="#E0E0E0"/>
<path d="M166.491 118.072H103.258C102.674 118.062 102.115 117.788 101.692 117.305C101.27 116.822 101.016 116.166 100.982 115.469C100.958 115.134 100.994 114.798 101.085 114.481C101.177 114.164 101.323 113.874 101.515 113.629C101.706 113.384 101.938 113.189 102.195 113.058C102.453 112.926 102.731 112.861 103.011 112.865H166.245C166.829 112.873 167.389 113.146 167.812 113.63C168.235 114.113 168.488 114.77 168.521 115.469C168.543 115.802 168.507 116.138 168.415 116.454C168.323 116.771 168.176 117.061 167.985 117.305C167.795 117.55 167.563 117.745 167.306 117.877C167.049 118.009 166.771 118.075 166.491 118.072Z" fill="#E0E0E0"/>
<path d="M155.303 126.28H103.646C103.063 126.272 102.503 125.999 102.082 125.515C101.661 125.032 101.409 124.374 101.377 123.677C101.352 123.343 101.386 123.006 101.476 122.688C101.567 122.371 101.712 122.08 101.903 121.834C102.094 121.589 102.326 121.394 102.584 121.263C102.842 121.132 103.12 121.067 103.4 121.074H155.057C155.642 121.079 156.203 121.352 156.626 121.835C157.049 122.319 157.302 122.978 157.333 123.677C157.355 124.011 157.319 124.346 157.227 124.663C157.134 124.979 156.988 125.269 156.797 125.514C156.606 125.758 156.375 125.953 156.118 126.085C155.86 126.217 155.583 126.283 155.303 126.28Z" fill="#E0E0E0"/>
<path d="M149.871 134.489H104.049C103.465 134.481 102.905 134.208 102.482 133.725C102.06 133.241 101.806 132.584 101.773 131.886C101.749 131.552 101.783 131.216 101.874 130.899C101.965 130.582 102.111 130.291 102.301 130.046C102.492 129.801 102.723 129.606 102.981 129.475C103.238 129.343 103.516 129.278 103.796 129.282H149.624C150.209 129.29 150.769 129.563 151.191 130.046C151.614 130.53 151.867 131.187 151.901 131.886C151.923 132.219 151.886 132.555 151.794 132.871C151.702 133.188 151.556 133.477 151.365 133.722C151.174 133.967 150.942 134.162 150.685 134.294C150.428 134.426 150.151 134.492 149.871 134.489Z" fill="#E0E0E0"/>
<path d="M135.258 147.842H98.1359C97.5517 147.836 96.9914 147.564 96.5697 147.08C96.1479 146.596 95.8965 145.937 95.867 145.239C95.8426 144.905 95.877 144.569 95.968 144.252C96.0589 143.935 96.2044 143.645 96.395 143.4C96.5856 143.154 96.8171 142.96 97.0746 142.828C97.332 142.697 97.6096 142.631 97.8895 142.636H135.012C135.596 142.646 136.155 142.919 136.577 143.402C136.999 143.885 137.253 144.541 137.288 145.239C137.311 145.573 137.276 145.91 137.184 146.226C137.092 146.543 136.946 146.834 136.755 147.079C136.564 147.324 136.332 147.518 136.074 147.65C135.816 147.781 135.539 147.847 135.258 147.842Z" fill="#E0E0E0"/>
<path d="M145.773 167.321H105.62C105.34 167.318 105.063 167.384 104.806 167.516C104.548 167.648 104.317 167.843 104.126 168.088C103.935 168.332 103.789 168.622 103.697 168.938C103.604 169.255 103.568 169.591 103.59 169.924C103.625 170.622 103.879 171.278 104.301 171.761C104.723 172.244 105.283 172.518 105.867 172.527H146.034C146.313 172.531 146.591 172.465 146.848 172.333C147.105 172.201 147.337 172.006 147.528 171.761C147.719 171.516 147.865 171.227 147.957 170.91C148.049 170.594 148.085 170.258 148.063 169.924C148.03 169.223 147.775 168.563 147.349 168.08C146.923 167.596 146.36 167.325 145.773 167.321Z" fill="#E0E0E0"/>
<path d="M137.799 159.112H105.229C104.95 159.109 104.672 159.175 104.415 159.307C104.158 159.439 103.926 159.634 103.735 159.879C103.544 160.123 103.398 160.413 103.306 160.73C103.214 161.046 103.178 161.382 103.2 161.715C103.233 162.414 103.486 163.071 103.909 163.554C104.331 164.038 104.891 164.311 105.476 164.318H138.017C138.297 164.323 138.575 164.258 138.833 164.126C139.091 163.995 139.322 163.8 139.514 163.555C139.705 163.31 139.851 163.02 139.943 162.703C140.035 162.386 140.07 162.05 140.047 161.715C140.014 161.023 139.765 160.37 139.348 159.888C138.932 159.406 138.379 159.129 137.799 159.112Z" fill="#E0E0E0"/>
<path d="M141.109 150.904H104.863C104.584 150.901 104.307 150.967 104.05 151.099C103.793 151.231 103.562 151.426 103.372 151.671C103.181 151.916 103.036 152.206 102.944 152.522C102.853 152.838 102.818 153.174 102.841 153.507C102.872 154.205 103.124 154.862 103.546 155.346C103.967 155.829 104.526 156.103 105.11 156.11H141.391C141.672 156.115 141.95 156.05 142.207 155.918C142.465 155.787 142.697 155.592 142.888 155.347C143.079 155.102 143.225 154.812 143.317 154.495C143.409 154.178 143.444 153.842 143.421 153.507C143.386 152.802 143.127 152.14 142.697 151.656C142.267 151.172 141.699 150.903 141.109 150.904Z" fill="#E0E0E0"/>
<path d="M138.271 210.445H101.148C100.565 210.435 100.005 210.161 99.5831 209.678C99.1609 209.195 98.9069 208.539 98.8722 207.842C98.8489 207.507 98.8843 207.171 98.9761 206.854C99.0679 206.537 99.2141 206.247 99.4053 206.002C99.5964 205.757 99.8284 205.562 100.086 205.431C100.344 205.299 100.622 205.234 100.902 205.239H138.024C138.608 205.246 139.167 205.52 139.589 206.003C140.01 206.487 140.262 207.144 140.293 207.842C140.318 208.175 140.283 208.511 140.192 208.828C140.101 209.145 139.956 209.436 139.765 209.681C139.575 209.926 139.343 210.121 139.086 210.253C138.828 210.384 138.551 210.449 138.271 210.445Z" fill="#E0E0E0"/>
<path d="M148.797 229.933H108.63C108.35 229.929 108.073 229.996 107.815 230.128C107.558 230.259 107.327 230.454 107.136 230.699C106.945 230.944 106.799 231.234 106.706 231.55C106.614 231.866 106.578 232.202 106.6 232.536C106.635 233.233 106.889 233.89 107.311 234.372C107.733 234.855 108.292 235.129 108.876 235.139H149.043C149.324 235.144 149.601 235.078 149.859 234.947C150.117 234.815 150.349 234.621 150.54 234.376C150.731 234.13 150.877 233.84 150.969 233.523C151.061 233.206 151.096 232.87 151.073 232.536C151.038 231.838 150.784 231.182 150.362 230.699C149.94 230.216 149.381 229.942 148.797 229.933Z" fill="#E0E0E0"/>
<path d="M140.781 221.725H108.233C107.953 221.721 107.676 221.788 107.419 221.92C107.162 222.051 106.931 222.246 106.741 222.491C106.55 222.736 106.405 223.026 106.313 223.342C106.222 223.659 106.187 223.994 106.21 224.328C106.243 225.026 106.497 225.684 106.919 226.167C107.342 226.65 107.902 226.923 108.486 226.931H141.027C141.307 226.934 141.585 226.868 141.842 226.736C142.099 226.604 142.33 226.41 142.521 226.165C142.712 225.92 142.859 225.63 142.951 225.314C143.043 224.997 143.079 224.662 143.057 224.328C143.022 223.63 142.768 222.974 142.346 222.491C141.924 222.008 141.365 221.734 140.781 221.725Z" fill="#E0E0E0"/>
<path d="M144.12 213.516H107.875C107.594 213.511 107.317 213.576 107.059 213.708C106.801 213.839 106.569 214.034 106.378 214.279C106.187 214.524 106.041 214.815 105.949 215.132C105.857 215.448 105.822 215.785 105.845 216.119C105.88 216.817 106.134 217.473 106.556 217.956C106.978 218.438 107.537 218.712 108.121 218.722H144.403C144.682 218.725 144.96 218.659 145.217 218.527C145.474 218.395 145.706 218.201 145.897 217.956C146.088 217.711 146.234 217.421 146.326 217.105C146.418 216.789 146.455 216.453 146.432 216.119C146.397 215.414 146.138 214.751 145.708 214.267C145.278 213.783 144.71 213.515 144.12 213.516Z" fill="#E0E0E0"/>
<path d="M146.969 191.946H106.802C106.522 191.941 106.244 192.006 105.987 192.138C105.729 192.269 105.498 192.464 105.307 192.709C105.117 192.955 104.971 193.245 104.88 193.562C104.789 193.879 104.755 194.215 104.779 194.549C104.81 195.246 105.062 195.904 105.484 196.387C105.905 196.87 106.464 197.144 107.048 197.152H147.222C147.503 197.156 147.78 197.091 148.038 196.96C148.296 196.828 148.528 196.634 148.719 196.388C148.91 196.143 149.056 195.853 149.148 195.536C149.24 195.219 149.275 194.883 149.252 194.549C149.219 193.849 148.964 193.19 148.54 192.707C148.116 192.223 147.554 191.951 146.969 191.946Z" fill="#E0E0E0"/>
<path d="M138.952 183.737H106.411C106.131 183.734 105.854 183.8 105.597 183.932C105.339 184.064 105.108 184.259 104.917 184.504C104.726 184.748 104.58 185.038 104.488 185.355C104.395 185.671 104.359 186.007 104.381 186.34C104.416 187.038 104.67 187.694 105.092 188.177C105.514 188.66 106.074 188.934 106.658 188.943H139.199C139.478 188.947 139.756 188.881 140.013 188.749C140.27 188.617 140.502 188.422 140.693 188.177C140.884 187.932 141.03 187.643 141.122 187.326C141.214 187.01 141.25 186.674 141.228 186.34C141.195 185.642 140.942 184.985 140.519 184.501C140.097 184.018 139.537 183.745 138.952 183.737Z" fill="#E0E0E0"/>
<path d="M142.296 175.529H106.051C105.771 175.526 105.494 175.592 105.237 175.724C104.98 175.856 104.749 176.051 104.559 176.296C104.369 176.541 104.223 176.831 104.132 177.147C104.04 177.463 104.005 177.799 104.028 178.132C104.061 178.831 104.315 179.488 104.737 179.971C105.16 180.455 105.72 180.728 106.305 180.735H142.55C142.83 180.739 143.107 180.673 143.364 180.541C143.622 180.409 143.853 180.214 144.044 179.969C144.235 179.724 144.381 179.435 144.473 179.118C144.566 178.802 144.602 178.466 144.58 178.132C144.545 177.433 144.29 176.776 143.866 176.293C143.442 175.81 142.881 175.537 142.296 175.529Z" fill="#E0E0E0"/>
<path d="M210.335 108.146H192.408C187.572 108.077 182.936 105.83 179.422 101.854C175.908 97.8775 173.774 92.4631 173.444 86.6883C173.281 83.9232 173.598 81.1474 174.376 78.5365C175.154 75.9255 176.376 73.5359 177.964 71.5187C179.553 69.5015 181.474 67.9005 183.605 66.8167C185.737 65.7329 188.033 65.1899 190.349 65.222C195.185 65.2918 199.821 67.5398 203.334 71.518C206.847 75.4963 208.979 80.9128 209.305 86.6883L210.335 108.146Z" fill="#FF7C44"/>
<path d="M192.223 104.432C188.226 104.374 184.394 102.515 181.49 99.2272C178.585 95.9391 176.822 91.4624 176.551 86.6885C176.414 84.4029 176.675 82.1083 177.318 79.9497C177.96 77.7911 178.97 75.8155 180.283 74.1478C181.595 72.4801 183.183 71.1566 184.945 70.261C186.707 69.3654 188.606 68.9171 190.52 68.9445C194.519 68.9991 198.354 70.8559 201.26 74.1447C204.166 77.4334 205.93 81.9124 206.2 86.6885C206.335 88.9745 206.073 91.2694 205.43 93.428C204.787 95.5866 203.776 97.5621 202.463 99.2296C201.149 100.897 199.561 102.22 197.799 103.116C196.036 104.012 194.138 104.46 192.223 104.432Z" fill="white"/>
<path d="M193.14 79.5039L193.865 93.8726H190.544L190.095 84.4583C189.627 84.9066 189.124 85.3017 188.594 85.6384C188 85.9889 187.381 86.2792 186.746 86.5061L186.594 83.287C187.511 82.9719 188.369 82.4442 189.116 81.7338C189.707 81.1304 190.167 80.3655 190.458 79.5039H193.14Z" fill="#263238"/>
<path d="M221.403 151.07H239.33C241.645 151.102 243.941 150.559 246.072 149.475C248.204 148.391 250.124 146.79 251.712 144.773C253.3 142.755 254.521 140.366 255.298 137.755C256.075 135.144 256.392 132.368 256.227 129.604C255.899 123.83 253.767 118.415 250.254 114.439C246.741 110.462 242.106 108.216 237.271 108.146C234.955 108.113 232.659 108.655 230.528 109.737C228.396 110.82 226.475 112.42 224.887 114.437C223.298 116.453 222.076 118.842 221.298 121.453C220.52 124.063 220.202 126.839 220.366 129.604L221.403 151.07Z" fill="#FF7C44"/>
<path d="M239.145 147.347C241.059 147.375 242.958 146.926 244.72 146.031C246.483 145.135 248.071 143.812 249.384 142.145C250.698 140.477 251.708 138.502 252.351 136.343C252.994 134.184 253.256 131.889 253.121 129.603C252.85 124.828 251.085 120.35 248.18 117.062C245.274 113.774 241.44 111.916 237.441 111.859C235.527 111.833 233.63 112.282 231.868 113.179C230.106 114.075 228.519 115.398 227.206 117.066C225.894 118.733 224.884 120.708 224.241 122.866C223.599 125.024 223.337 127.318 223.472 129.603C223.742 134.378 225.504 138.856 228.409 142.144C231.314 145.433 235.147 147.291 239.145 147.347Z" fill="white"/>
<path d="M243.881 136.788H234.044C234.098 135.625 234.394 134.497 234.907 133.508C235.743 132.101 236.772 130.875 237.952 129.881C238.605 129.331 239.192 128.677 239.699 127.938C239.927 127.572 240.049 127.127 240.047 126.671C240.037 126.46 239.992 126.253 239.913 126.063C239.835 125.874 239.725 125.706 239.59 125.569C239.312 125.262 238.946 125.097 238.568 125.109C238.382 125.098 238.197 125.134 238.024 125.217C237.851 125.299 237.696 125.425 237.568 125.586C237.264 126.065 237.103 126.651 237.111 127.252L233.812 126.931C233.837 126.022 234.035 125.131 234.392 124.328C234.719 123.692 235.203 123.195 235.777 122.905C236.596 122.524 237.473 122.353 238.35 122.402C239.273 122.357 240.195 122.519 241.069 122.879C241.7 123.172 242.248 123.675 242.649 124.328C243.044 124.967 243.273 125.73 243.309 126.523C243.346 127.388 243.167 128.246 242.794 128.987C242.217 130.016 241.479 130.9 240.619 131.59C239.981 132.137 239.561 132.519 239.351 132.744C239.096 133.017 238.854 133.307 238.626 133.612H243.751L243.881 136.788Z" fill="#263238"/>
<g opacity="0.4">
<path d="M214.457 193.959H196.516C191.68 193.889 187.044 191.643 183.53 187.666C180.016 183.69 177.882 178.276 177.552 172.501C177.388 169.737 177.704 166.962 178.481 164.351C179.258 161.741 180.48 159.351 182.068 157.335C183.656 155.318 185.576 153.718 187.707 152.635C189.839 151.552 192.135 151.01 194.45 151.043C199.285 151.113 203.921 153.359 207.435 157.336C210.95 161.312 213.084 166.726 213.413 172.501L214.457 193.959Z" fill="#FF7C44"/>
</g>
<path d="M196.348 190.271C192.351 190.215 188.517 188.357 185.613 185.068C182.708 181.78 180.945 177.302 180.676 172.527C180.539 170.242 180.801 167.947 181.443 165.789C182.085 163.63 183.095 161.654 184.408 159.987C185.72 158.319 187.308 156.995 189.07 156.1C190.832 155.204 192.731 154.756 194.645 154.783C198.637 154.851 202.462 156.713 205.36 160C208.258 163.288 210.018 167.759 210.288 172.527C210.423 174.81 210.162 177.101 209.521 179.256C208.88 181.412 207.873 183.385 206.564 185.052C205.254 186.719 203.671 188.043 201.913 188.942C200.154 189.84 198.26 190.293 196.348 190.271Z" fill="white"/>
<path d="M193.753 169.551L190.621 168.883C190.771 167.806 191.255 166.836 191.977 166.168C192.888 165.469 193.963 165.137 195.043 165.222C196.238 165.108 197.431 165.471 198.436 166.254C198.775 166.56 199.055 166.952 199.254 167.402C199.453 167.852 199.567 168.349 199.588 168.857C199.625 169.439 199.506 170.02 199.247 170.515C198.946 171.062 198.535 171.509 198.051 171.816C198.424 171.907 198.784 172.065 199.117 172.285C199.516 172.562 199.851 172.956 200.088 173.43C200.339 173.942 200.479 174.52 200.494 175.113C200.533 175.935 200.386 176.753 200.067 177.482C199.75 178.23 199.242 178.838 198.617 179.217C197.793 179.67 196.891 179.881 195.985 179.833C195.114 179.87 194.244 179.714 193.419 179.374C192.809 179.094 192.264 178.641 191.832 178.055C191.371 177.411 191.022 176.665 190.802 175.859L194.057 175.339C194.149 175.953 194.383 176.524 194.731 176.987C195.019 177.305 195.398 177.479 195.79 177.473C195.993 177.481 196.195 177.433 196.381 177.334C196.567 177.235 196.731 177.087 196.863 176.901C197.144 176.461 197.274 175.908 197.225 175.356C197.226 174.791 197.05 174.247 196.732 173.829C196.576 173.65 196.392 173.51 196.19 173.418C195.989 173.325 195.774 173.282 195.558 173.291C195.2 173.312 194.846 173.391 194.507 173.525V170.723C194.651 170.732 194.797 170.732 194.942 170.723C195.135 170.73 195.328 170.691 195.508 170.607C195.689 170.524 195.853 170.398 195.993 170.237C196.121 170.085 196.221 169.902 196.285 169.7C196.349 169.498 196.375 169.281 196.362 169.066C196.355 168.677 196.222 168.307 195.993 168.033C195.744 167.769 195.419 167.632 195.087 167.651C194.917 167.642 194.749 167.674 194.59 167.745C194.432 167.817 194.287 167.927 194.166 168.068C193.896 168.495 193.751 169.016 193.753 169.551Z" fill="#263238"/>
<path d="M225.514 236.908H243.441C245.756 236.941 248.053 236.398 250.184 235.314C252.316 234.23 254.237 232.629 255.825 230.612C257.414 228.595 258.636 226.205 259.414 223.594C260.192 220.983 260.509 218.207 260.345 215.442C260.021 209.664 257.89 204.245 254.377 200.263C250.864 196.282 246.227 194.031 241.389 193.958C239.074 193.925 236.778 194.467 234.647 195.55C232.516 196.633 230.595 198.233 229.007 200.25C227.419 202.266 226.198 204.656 225.421 207.266C224.643 209.877 224.327 212.652 224.492 215.416L225.514 236.908Z" fill="#E0E0E0"/>
<path d="M243.273 233.186C245.187 233.214 247.085 232.766 248.847 231.87C250.609 230.974 252.197 229.651 253.51 227.983C254.823 226.316 255.832 224.34 256.474 222.181C257.117 220.023 257.378 217.728 257.241 215.443C256.97 210.669 255.207 206.194 252.302 202.907C249.398 199.62 245.566 197.764 241.569 197.707C239.655 197.68 237.757 198.128 235.995 199.023C234.233 199.918 232.646 201.241 231.332 202.907C230.019 204.574 229.009 206.548 228.365 208.706C227.721 210.863 227.458 213.157 227.593 215.443C227.864 220.218 229.628 224.696 232.534 227.984C235.44 231.272 239.274 233.13 243.273 233.186Z" fill="white"/>
<path d="M243.204 219.989H237.23L237.078 216.761L242.638 208.258H245.502L245.915 216.935H247.401L247.546 219.98H246.096L246.226 222.583H243.37L243.204 219.989ZM243.059 216.943L242.841 212.501L239.898 216.943H243.059Z" fill="#E0E0E0"/>
<path d="M218.987 194.748C218.824 194.747 218.668 194.671 218.55 194.538C218.432 194.404 218.36 194.222 218.349 194.028L214.232 108.189C214.219 108.084 214.224 107.977 214.247 107.875C214.271 107.773 214.312 107.677 214.368 107.595C214.424 107.513 214.493 107.445 214.572 107.397C214.651 107.349 214.738 107.321 214.826 107.315C214.915 107.309 215.003 107.325 215.086 107.362C215.169 107.399 215.245 107.457 215.308 107.531C215.372 107.605 215.421 107.694 215.454 107.792C215.487 107.891 215.503 107.996 215.5 108.102L219.589 193.959C219.598 194.16 219.542 194.358 219.43 194.509C219.319 194.66 219.162 194.752 218.994 194.766L218.987 194.748Z" fill="#FF7C44"/>
<path d="M221.021 237.664C220.86 237.664 220.705 237.591 220.587 237.458C220.47 237.326 220.399 237.145 220.39 236.952L218.324 194.028C218.329 193.838 218.394 193.657 218.505 193.52C218.617 193.384 218.766 193.302 218.925 193.291C219.084 193.28 219.241 193.341 219.365 193.461C219.488 193.582 219.569 193.753 219.593 193.942L221.659 236.865C221.667 237.067 221.608 237.263 221.495 237.413C221.383 237.562 221.225 237.653 221.057 237.664H221.021Z" fill="#E0E0E0"/>
<path d="M216.173 108.145C216.185 108.352 216.161 108.559 216.103 108.754C216.045 108.949 215.954 109.127 215.836 109.278C215.717 109.429 215.574 109.549 215.415 109.63C215.256 109.711 215.085 109.752 214.912 109.751C214.545 109.752 214.192 109.587 213.923 109.289C213.654 108.991 213.489 108.583 213.462 108.145C213.45 107.938 213.474 107.73 213.532 107.535C213.591 107.339 213.683 107.16 213.802 107.01C213.921 106.859 214.065 106.739 214.225 106.658C214.385 106.578 214.557 106.537 214.731 106.54C215.096 106.541 215.447 106.707 215.715 107.005C215.982 107.302 216.146 107.71 216.173 108.145Z" fill="white"/>
<path d="M214.915 110.514C214.392 110.507 213.89 110.263 213.509 109.832C213.129 109.401 212.899 108.814 212.864 108.189C212.846 107.878 212.882 107.566 212.969 107.273C213.057 106.98 213.194 106.712 213.373 106.485C213.551 106.258 213.767 106.079 214.006 105.957C214.245 105.835 214.503 105.773 214.763 105.776C215.286 105.786 215.788 106.03 216.167 106.461C216.547 106.891 216.778 107.477 216.815 108.102C216.835 108.418 216.8 108.736 216.711 109.035C216.623 109.334 216.483 109.607 216.3 109.837C216.121 110.058 215.905 110.233 215.667 110.349C215.429 110.466 215.173 110.522 214.915 110.514ZM214.763 107.304C214.677 107.301 214.591 107.32 214.512 107.359C214.432 107.398 214.36 107.456 214.299 107.529C214.238 107.604 214.192 107.695 214.163 107.793C214.134 107.892 214.124 107.998 214.132 108.102C214.152 108.336 214.242 108.553 214.387 108.713C214.531 108.873 214.719 108.964 214.915 108.97C215.002 108.972 215.087 108.953 215.167 108.914C215.247 108.875 215.319 108.817 215.379 108.744C215.437 108.666 215.482 108.576 215.51 108.478C215.539 108.379 215.551 108.275 215.546 108.171C215.527 107.937 215.436 107.72 215.292 107.56C215.148 107.4 214.96 107.309 214.763 107.304Z" fill="#FF7C44"/>
<path d="M218.265 151.069C218.276 151.276 218.251 151.483 218.192 151.678C218.133 151.873 218.041 152.052 217.922 152.202C217.803 152.353 217.66 152.472 217.5 152.554C217.341 152.635 217.17 152.676 216.996 152.674C216.63 152.676 216.277 152.511 216.008 152.213C215.739 151.915 215.574 151.507 215.547 151.069C215.533 150.862 215.556 150.655 215.614 150.459C215.672 150.264 215.763 150.085 215.882 149.934C216 149.783 216.144 149.663 216.303 149.582C216.463 149.501 216.635 149.461 216.808 149.464C217.176 149.461 217.531 149.624 217.801 149.922C218.072 150.22 218.237 150.63 218.265 151.069Z" fill="white"/>
<path d="M216.975 153.43C216.452 153.423 215.951 153.18 215.571 152.751C215.191 152.322 214.96 151.737 214.923 151.113C214.904 150.797 214.939 150.479 215.028 150.18C215.116 149.882 215.256 149.608 215.438 149.378C215.616 149.153 215.831 148.975 216.069 148.854C216.307 148.733 216.564 148.672 216.822 148.675C217.345 148.682 217.846 148.924 218.226 149.354C218.606 149.783 218.838 150.368 218.874 150.992C218.892 151.302 218.856 151.613 218.769 151.906C218.681 152.199 218.544 152.466 218.365 152.692C218.187 152.918 217.971 153.097 217.731 153.218C217.492 153.339 217.234 153.399 216.975 153.395V153.43ZM216.822 150.219C216.736 150.219 216.65 150.239 216.57 150.279C216.491 150.32 216.419 150.379 216.359 150.454C216.3 150.531 216.255 150.621 216.226 150.72C216.198 150.818 216.186 150.922 216.192 151.026C216.211 151.26 216.302 151.478 216.446 151.638C216.59 151.798 216.778 151.889 216.975 151.894C217.061 151.895 217.147 151.875 217.226 151.835C217.306 151.795 217.377 151.736 217.436 151.661C217.496 151.586 217.541 151.497 217.57 151.399C217.599 151.302 217.611 151.199 217.605 151.096C217.587 150.859 217.497 150.638 217.351 150.476C217.205 150.314 217.014 150.223 216.815 150.219H216.822Z" fill="#FF7C44"/>
<path d="M220.3 193.959C220.312 194.166 220.288 194.374 220.23 194.569C220.171 194.765 220.08 194.944 219.96 195.095C219.841 195.245 219.697 195.365 219.537 195.446C219.377 195.527 219.205 195.567 219.032 195.564C218.672 195.554 218.327 195.385 218.066 195.088C217.805 194.791 217.645 194.389 217.618 193.959C217.606 193.752 217.63 193.545 217.688 193.35C217.746 193.155 217.837 192.977 217.956 192.826C218.074 192.675 218.217 192.556 218.376 192.474C218.535 192.393 218.707 192.352 218.88 192.354C219.241 192.361 219.587 192.53 219.85 192.827C220.113 193.124 220.273 193.527 220.3 193.959Z" fill="white"/>
<path d="M219.032 196.354C218.509 196.344 218.007 196.1 217.627 195.669C217.248 195.239 217.017 194.653 216.98 194.028C216.96 193.712 216.995 193.394 217.084 193.095C217.172 192.796 217.312 192.523 217.495 192.293C217.672 192.067 217.887 191.887 218.125 191.766C218.364 191.645 218.621 191.585 218.88 191.59C219.402 191.597 219.903 191.84 220.283 192.269C220.663 192.698 220.895 193.283 220.931 193.907C220.955 194.223 220.923 194.541 220.835 194.841C220.747 195.14 220.607 195.413 220.424 195.642C220.245 195.869 220.029 196.049 219.79 196.172C219.55 196.294 219.292 196.356 219.032 196.354ZM218.88 193.143C218.794 193.141 218.708 193.161 218.628 193.199C218.549 193.238 218.476 193.296 218.416 193.369C218.299 193.526 218.239 193.732 218.249 193.942C218.27 194.175 218.361 194.391 218.505 194.551C218.648 194.71 218.836 194.802 219.032 194.809C219.118 194.81 219.204 194.789 219.284 194.749C219.364 194.709 219.436 194.65 219.496 194.575C219.557 194.5 219.603 194.41 219.632 194.311C219.661 194.212 219.671 194.106 219.662 194.002C219.641 193.77 219.55 193.554 219.406 193.396C219.262 193.238 219.075 193.148 218.88 193.143Z" fill="#E0E0E0"/>
<path d="M222.361 236.908C222.373 237.115 222.349 237.322 222.291 237.517C222.233 237.712 222.142 237.89 222.023 238.041C221.905 238.191 221.761 238.311 221.602 238.393C221.444 238.474 221.272 238.515 221.099 238.513C220.733 238.515 220.38 238.35 220.111 238.052C219.842 237.754 219.677 237.345 219.65 236.908C219.637 236.701 219.661 236.493 219.72 236.297C219.778 236.102 219.87 235.923 219.99 235.772C220.109 235.621 220.253 235.502 220.413 235.421C220.573 235.34 220.745 235.3 220.918 235.303C221.283 235.304 221.635 235.47 221.902 235.767C222.17 236.065 222.333 236.472 222.361 236.908Z" fill="white"/>
<path d="M221.096 239.268C220.574 239.261 220.073 239.019 219.693 238.59C219.313 238.16 219.081 237.576 219.045 236.952C219.021 236.636 219.053 236.317 219.141 236.018C219.228 235.719 219.369 235.445 219.552 235.216C219.731 234.99 219.947 234.809 220.186 234.687C220.426 234.564 220.684 234.503 220.944 234.505C221.467 234.514 221.969 234.759 222.348 235.189C222.728 235.62 222.959 236.206 222.996 236.83C223.013 237.14 222.976 237.451 222.888 237.743C222.8 238.035 222.663 238.303 222.484 238.528C222.306 238.754 222.091 238.933 221.852 239.054C221.613 239.176 221.356 239.237 221.096 239.234V239.268ZM220.944 236.058C220.858 236.057 220.772 236.078 220.692 236.118C220.612 236.158 220.54 236.218 220.48 236.292C220.419 236.368 220.373 236.458 220.344 236.557C220.315 236.656 220.305 236.761 220.313 236.865C220.333 237.099 220.423 237.317 220.568 237.477C220.712 237.636 220.9 237.727 221.096 237.733C221.182 237.735 221.268 237.715 221.348 237.677C221.427 237.638 221.5 237.58 221.56 237.507C221.677 237.35 221.737 237.144 221.727 236.934C221.709 236.699 221.62 236.479 221.475 236.317C221.331 236.156 221.142 236.064 220.944 236.058Z" fill="#E0E0E0"/>
</svg>
