<svg width="347" height="303" viewBox="0 0 347 303" fill="none" xmlns="http://www.w3.org/2000/svg">
<rect width="347" height="303" fill="#FFDED0"/>
<path d="M216.308 273.062H129.89C119.468 273.018 110.955 264.488 111 254.488L111.919 46.0361C111.928 43.657 112.425 41.3029 113.382 39.1086C114.339 36.9143 115.737 34.9226 117.496 33.2476C119.254 31.5726 121.339 30.247 123.631 29.3466C125.923 28.4462 128.378 27.9887 130.854 28.0002L217.403 28.3882C219.877 28.3989 222.326 28.8777 224.608 29.7974C226.89 30.7172 228.961 32.0597 230.703 33.7485C232.445 35.4372 233.824 37.439 234.76 39.6397C235.697 41.8404 236.173 44.1968 236.162 46.5743L235.244 255.026C235.234 257.405 234.737 259.759 233.78 261.954C232.823 264.148 231.426 266.14 229.667 267.815C227.908 269.49 225.823 270.815 223.531 271.716C221.239 272.616 218.785 273.074 216.308 273.062Z" fill="#263238"/>
<path d="M217.279 35.5729L200.5 35.4978C199.395 35.5176 198.343 35.9575 197.575 36.7212C196.807 37.4849 196.385 38.51 196.403 39.5718V42.4944C196.413 43.0204 196.315 43.5432 196.115 44.0329C195.915 44.5227 195.617 44.9698 195.237 45.3487C194.857 45.7276 194.403 46.0309 193.901 46.2413C193.4 46.4516 192.859 46.5649 192.312 46.5747L159.58 46.4308C158.476 46.4029 157.428 45.9548 156.667 45.185C155.906 44.4153 155.494 43.3867 155.522 42.3254V39.3966C155.55 38.3347 155.139 37.3055 154.378 36.5347C153.617 35.7639 152.569 35.3145 151.464 35.285H145.563L130.92 35.1974C129.186 35.1892 127.467 35.5094 125.861 36.1398C124.256 36.7701 122.796 37.6983 121.564 38.8711C120.333 40.044 119.354 41.4386 118.683 42.9752C118.013 44.5118 117.664 46.1602 117.658 47.8263L116.746 251.29C116.732 254.654 118.109 257.886 120.573 260.275C123.038 262.664 126.389 264.015 129.89 264.032L216.257 264.414C219.759 264.429 223.124 263.107 225.612 260.739C228.1 258.37 229.508 255.15 229.525 251.785L230.418 48.3207C230.427 46.6546 230.094 45.0031 229.439 43.4605C228.784 41.918 227.819 40.5146 226.598 39.3307C225.378 38.1468 223.927 37.2055 222.328 36.5608C220.729 35.916 219.013 35.5803 217.279 35.5729Z" fill="#FAFAFA"/>
<path d="M142.208 56.368C140.06 56.5293 137.906 56.5836 135.753 56.5307C133.599 56.5834 131.445 56.5291 129.297 56.368C131.445 56.2031 133.599 56.1488 135.753 56.2053C137.906 56.1486 140.061 56.2029 142.208 56.368Z" fill="#263238"/>
<path d="M142.208 54.0212C140.061 54.1862 137.906 54.2405 135.753 54.1839C133.599 54.2403 131.445 54.186 129.297 54.0212C131.445 53.86 133.599 53.8057 135.753 53.8584C137.906 53.8056 140.06 53.8599 142.208 54.0212Z" fill="#263238"/>
<path d="M142.208 51.6813C140.06 51.8426 137.906 51.8969 135.753 51.844C133.599 51.8967 131.445 51.8424 129.297 51.6813C131.445 51.5202 133.599 51.4659 135.753 51.5186C137.906 51.4657 140.06 51.52 142.208 51.6813Z" fill="#263238"/>
<path d="M216.393 231.264H130.776C129.617 231.264 128.678 232.166 128.678 233.279V248.987C128.678 250.1 129.617 251.002 130.776 251.002H216.393C217.551 251.002 218.49 250.1 218.49 248.987V233.279C218.49 232.166 217.551 231.264 216.393 231.264Z" fill="#FF7C44"/>
<g opacity="0.3">
<path d="M149.126 235.275H140.476C139.353 235.275 138.443 236.15 138.443 237.228V245.539C138.443 246.617 139.353 247.491 140.476 247.491H149.126C150.248 247.491 151.158 246.617 151.158 245.539V237.228C151.158 236.15 150.248 235.275 149.126 235.275Z" fill="black"/>
</g>
<path d="M144.8 244.926C144.714 244.926 144.631 244.893 144.57 244.834C144.509 244.776 144.475 244.696 144.475 244.613V238.155C144.475 238.072 144.509 237.992 144.57 237.933C144.631 237.875 144.714 237.842 144.8 237.842C144.887 237.842 144.97 237.875 145.031 237.933C145.092 237.992 145.126 238.072 145.126 238.155V244.594C145.129 244.637 145.122 244.68 145.107 244.72C145.092 244.76 145.068 244.797 145.038 244.828C145.007 244.859 144.97 244.884 144.93 244.901C144.889 244.917 144.845 244.926 144.8 244.926Z" fill="white"/>
<path d="M148.103 241.696H141.498C141.411 241.696 141.328 241.663 141.267 241.604C141.206 241.546 141.172 241.466 141.172 241.383C141.172 241.3 141.206 241.221 141.267 241.162C141.328 241.103 141.411 241.07 141.498 241.07H148.103C148.189 241.07 148.272 241.103 148.333 241.162C148.394 241.221 148.428 241.3 148.428 241.383C148.428 241.466 148.394 241.546 148.333 241.604C148.272 241.663 148.189 241.696 148.103 241.696Z" fill="white"/>
<path d="M162.316 242.541H160.069L159.606 243.562H158.955L160.87 239.5H161.469L163.384 243.562H162.733L162.316 242.541ZM162.101 242.078L161.189 240.095L160.277 242.078H162.101Z" fill="white"/>
<path d="M164.042 239.5H165.82C166.107 239.485 166.395 239.526 166.665 239.621C166.936 239.716 167.183 239.863 167.392 240.053C167.601 240.244 167.768 240.473 167.882 240.727C167.995 240.981 168.054 241.254 168.054 241.531C168.054 241.808 167.995 242.081 167.882 242.335C167.768 242.589 167.601 242.818 167.392 243.008C167.183 243.199 166.936 243.346 166.665 243.441C166.395 243.536 166.107 243.577 165.82 243.562H164.042V239.5ZM165.787 243.055C166.004 243.068 166.221 243.039 166.426 242.968C166.63 242.898 166.818 242.788 166.976 242.645C167.135 242.502 167.261 242.329 167.347 242.138C167.434 241.946 167.478 241.74 167.478 241.531C167.478 241.322 167.434 241.116 167.347 240.924C167.261 240.733 167.135 240.56 166.976 240.417C166.818 240.274 166.63 240.164 166.426 240.094C166.221 240.023 166.004 239.994 165.787 240.007H164.641V243.055H165.787Z" fill="white"/>
<path d="M169.031 239.5H170.81C171.097 239.485 171.385 239.526 171.655 239.621C171.925 239.716 172.173 239.863 172.382 240.053C172.591 240.244 172.757 240.473 172.871 240.727C172.985 240.981 173.044 241.254 173.044 241.531C173.044 241.808 172.985 242.081 172.871 242.335C172.757 242.589 172.591 242.818 172.382 243.008C172.173 243.199 171.925 243.346 171.655 243.441C171.385 243.536 171.097 243.577 170.81 243.562H169.031V239.5ZM170.77 243.055C170.987 243.068 171.205 243.039 171.409 242.968C171.614 242.898 171.801 242.788 171.959 242.645C172.118 242.502 172.244 242.329 172.331 242.138C172.417 241.946 172.461 241.74 172.461 241.531C172.461 241.322 172.417 241.116 172.331 240.924C172.244 240.733 172.118 240.56 171.959 240.417C171.801 240.274 171.614 240.164 171.409 240.094C171.205 240.023 170.987 239.994 170.77 240.007H169.631V243.055H170.77Z" fill="white"/>
<path d="M176.476 240.007H175.03V239.5H178.522V240.007H177.076V243.562H176.476V240.007Z" fill="white"/>
<path d="M178.776 241.528C178.759 241.098 178.876 240.673 179.112 240.307C179.348 239.942 179.693 239.653 180.101 239.476C180.509 239.3 180.963 239.245 181.405 239.319C181.846 239.392 182.254 239.59 182.577 239.888C182.9 240.186 183.123 240.57 183.218 240.99C183.312 241.411 183.274 241.849 183.108 242.248C182.941 242.648 182.655 242.99 182.284 243.232C181.914 243.474 181.477 243.604 181.029 243.605C180.737 243.619 180.445 243.575 180.172 243.477C179.898 243.378 179.648 243.227 179.437 243.033C179.226 242.838 179.058 242.604 178.945 242.346C178.831 242.087 178.773 241.808 178.776 241.528ZM182.684 241.528C182.686 241.215 182.592 240.908 182.413 240.647C182.234 240.386 181.978 240.182 181.678 240.061C181.378 239.94 181.047 239.907 180.728 239.967C180.408 240.027 180.115 240.177 179.884 240.398C179.653 240.618 179.496 240.9 179.433 241.207C179.369 241.513 179.402 241.831 179.526 242.12C179.651 242.409 179.863 242.655 180.134 242.828C180.405 243.002 180.723 243.093 181.049 243.092C181.263 243.095 181.476 243.057 181.674 242.98C181.873 242.902 182.053 242.787 182.204 242.641C182.355 242.495 182.473 242.321 182.552 242.129C182.631 241.938 182.67 241.733 182.664 241.528H182.684Z" fill="white"/>
<path d="M185.472 241.527C185.469 241.247 185.526 240.97 185.638 240.712C185.751 240.454 185.917 240.221 186.127 240.027C186.337 239.833 186.586 239.682 186.859 239.584C187.131 239.486 187.422 239.442 187.713 239.456C188.011 239.443 188.309 239.492 188.585 239.6C188.862 239.708 189.111 239.872 189.315 240.081L188.925 240.444C188.774 240.287 188.591 240.163 188.386 240.08C188.182 239.997 187.961 239.957 187.739 239.962C187.307 239.962 186.893 240.127 186.588 240.421C186.282 240.714 186.111 241.112 186.111 241.527C186.111 241.942 186.282 242.34 186.588 242.633C186.893 242.927 187.307 243.092 187.739 243.092C187.961 243.096 188.182 243.055 188.387 242.97C188.591 242.886 188.774 242.761 188.925 242.603L189.315 242.966C189.11 243.176 188.86 243.34 188.582 243.448C188.304 243.556 188.006 243.605 187.707 243.592C187.417 243.605 187.127 243.561 186.856 243.463C186.584 243.364 186.337 243.214 186.127 243.021C185.918 242.828 185.753 242.596 185.64 242.339C185.527 242.082 185.47 241.806 185.472 241.527Z" fill="white"/>
<path d="M192.801 242.541H190.554L190.091 243.562H189.44L191.355 239.5H191.954L193.869 243.562H193.218L192.801 242.541ZM192.586 242.078L191.674 240.095L190.762 242.078H192.586Z" fill="white"/>
<path d="M197.32 243.562L196.415 242.31H196.148H195.105V243.562H194.5V239.5H196.148C197.242 239.5 197.906 240.032 197.906 240.914C197.919 241.196 197.836 241.474 197.669 241.706C197.502 241.937 197.26 242.11 196.981 242.197L197.978 243.562H197.32ZM197.32 240.914C197.32 240.339 196.916 240.007 196.141 240.007H195.118V241.834H196.141C196.903 241.834 197.307 241.496 197.307 240.914H197.32Z" fill="white"/>
<path d="M199.666 240.007H198.22V239.5H201.711V240.007H200.265V243.562H199.666V240.007Z" fill="white"/>
<path d="M135.843 193.728L136.944 195.88L139.419 196.225L137.628 197.902L138.051 200.267L135.843 199.147L133.628 200.267L134.052 197.902L132.26 196.225L134.735 195.88L135.843 193.728Z" fill="#FF7C44"/>
<path d="M144.975 193.728L146.082 195.88L148.551 196.225L146.766 197.902L147.183 200.267L144.975 199.147L142.76 200.267L143.184 197.902L141.393 196.225L143.868 195.88L144.975 193.728Z" fill="#FF7C44"/>
<path d="M154.108 193.728L155.215 195.88L157.691 196.225L155.899 197.902L156.323 200.267L154.108 199.147L151.893 200.267L152.317 197.902L150.525 196.225L153.001 195.88L154.108 193.728Z" fill="#FF7C44"/>
<path d="M163.241 193.728L164.348 195.88L166.824 196.225L165.032 197.902L165.456 200.267L163.241 199.147L161.026 200.267L161.45 197.902L159.665 196.225L162.134 195.88L163.241 193.728Z" fill="#FF7C44"/>
<path d="M172.373 193.728L173.481 195.88L175.956 196.225L174.165 197.902L174.588 200.267L172.373 199.147L170.165 200.267L170.589 197.902L168.797 196.225L171.273 195.88L172.373 193.728Z" fill="#E0E0E0"/>
<path d="M185.772 198.715V199.203H182.86V198.822L184.515 197.295C184.938 196.894 185.023 196.669 185.023 196.406C185.023 196.005 184.73 195.78 184.156 195.78C183.963 195.769 183.769 195.802 183.591 195.874C183.413 195.947 183.254 196.058 183.127 196.199L182.73 195.874C182.915 195.676 183.144 195.521 183.4 195.419C183.656 195.317 183.932 195.272 184.209 195.286C185.055 195.286 185.603 195.699 185.603 196.368C185.598 196.606 185.536 196.839 185.423 197.051C185.311 197.262 185.149 197.446 184.951 197.589L183.714 198.734L185.772 198.715Z" fill="black"/>
<path d="M189.015 198.059C189.015 198.685 188.514 199.248 187.485 199.248C186.947 199.262 186.421 199.094 186 198.772L186.267 198.334C186.605 198.613 187.039 198.762 187.485 198.753C188.09 198.753 188.442 198.484 188.442 198.059C188.442 197.633 188.13 197.383 187.439 197.383H187.113V196.995L188.13 195.793H186.175V195.312H188.846V195.687L187.791 196.939C188.605 197.033 189.015 197.458 189.015 198.059Z" fill="black"/>
<path d="M194.148 199.204L193.275 198.008H192.018V199.197H191.438V195.305H193.021C194.07 195.305 194.708 195.818 194.708 196.663C194.723 196.936 194.643 197.207 194.482 197.433C194.321 197.659 194.087 197.828 193.816 197.914L194.78 199.222L194.148 199.204ZM194.148 196.669C194.148 196.112 193.764 195.793 193.021 195.793H192.018V197.545H193.002C193.744 197.545 194.103 197.22 194.103 196.669H194.148Z" fill="black"/>
<path d="M198.323 197.909H195.835C195.871 198.16 196.005 198.389 196.211 198.549C196.417 198.708 196.679 198.786 196.942 198.766C197.108 198.774 197.274 198.746 197.427 198.684C197.581 198.622 197.718 198.528 197.828 198.409L198.134 198.753C197.908 198.974 197.621 199.127 197.306 199.194C196.991 199.261 196.663 199.239 196.361 199.13C196.059 199.022 195.797 198.831 195.605 198.582C195.413 198.333 195.301 198.036 195.281 197.727C195.273 197.53 195.307 197.333 195.381 197.149C195.456 196.965 195.568 196.798 195.712 196.657C195.856 196.516 196.029 196.405 196.219 196.331C196.409 196.257 196.613 196.221 196.819 196.225C197.025 196.219 197.231 196.255 197.422 196.331C197.613 196.406 197.786 196.519 197.929 196.662C198.072 196.805 198.182 196.976 198.252 197.162C198.322 197.349 198.351 197.548 198.336 197.746C198.335 197.8 198.331 197.855 198.323 197.909ZM195.835 197.521H197.789C197.751 197.298 197.632 197.096 197.453 196.949C197.274 196.803 197.047 196.723 196.812 196.723C196.577 196.723 196.35 196.803 196.171 196.949C195.992 197.096 195.873 197.298 195.835 197.521Z" fill="black"/>
<path d="M201.756 196.256L200.414 199.203H199.847L198.505 196.256H199.085L200.14 198.615L201.215 196.256H201.756Z" fill="black"/>
<path d="M202.18 195.343C202.18 195.296 202.19 195.249 202.209 195.206C202.228 195.162 202.256 195.123 202.291 195.091C202.326 195.058 202.368 195.032 202.414 195.015C202.46 194.999 202.509 194.991 202.557 194.992C202.605 194.991 202.653 194.998 202.697 195.014C202.742 195.031 202.782 195.055 202.817 195.087C202.852 195.118 202.879 195.156 202.898 195.198C202.918 195.239 202.928 195.285 202.929 195.33C202.917 195.418 202.872 195.498 202.803 195.556C202.734 195.614 202.646 195.646 202.554 195.646C202.463 195.646 202.374 195.614 202.305 195.556C202.236 195.498 202.192 195.418 202.18 195.33V195.343ZM202.277 196.257H202.831V199.204H202.277V196.257Z" fill="black"/>
<path d="M206.647 197.909H204.158C204.196 198.161 204.332 198.39 204.539 198.549C204.745 198.709 205.008 198.786 205.272 198.766C205.438 198.772 205.603 198.744 205.756 198.682C205.909 198.621 206.047 198.527 206.158 198.409L206.464 198.753C206.238 198.976 205.95 199.131 205.634 199.199C205.319 199.267 204.989 199.245 204.686 199.137C204.383 199.028 204.119 198.837 203.927 198.586C203.735 198.336 203.623 198.038 203.605 197.727C203.597 197.53 203.631 197.333 203.705 197.149C203.779 196.965 203.891 196.798 204.035 196.657C204.179 196.516 204.352 196.405 204.542 196.331C204.732 196.257 204.937 196.221 205.142 196.225C205.348 196.219 205.554 196.255 205.745 196.331C205.936 196.406 206.109 196.519 206.252 196.662C206.395 196.805 206.505 196.976 206.575 197.162C206.646 197.349 206.674 197.548 206.66 197.746C206.658 197.8 206.654 197.855 206.647 197.909ZM204.158 197.521H206.112C206.075 197.298 205.955 197.096 205.776 196.949C205.597 196.803 205.37 196.723 205.135 196.723C204.901 196.723 204.673 196.803 204.494 196.949C204.315 197.096 204.196 197.298 204.158 197.521Z" fill="black"/>
<path d="M212.01 196.256L210.87 199.203H210.336L209.45 196.963L208.551 199.203H208.024L206.884 196.256H207.411L208.297 198.603L209.222 196.256H209.691L210.603 198.609L211.515 196.256H212.01Z" fill="black"/>
<path d="M212.146 198.91L212.374 198.484C212.694 198.685 213.067 198.792 213.449 198.791C213.964 198.791 214.179 198.641 214.179 198.391C214.179 197.734 212.225 198.303 212.225 197.139C212.225 196.607 212.713 196.25 213.527 196.25C213.919 196.244 214.305 196.337 214.648 196.519L214.407 196.939C214.14 196.782 213.833 196.702 213.521 196.707C213.039 196.707 212.798 196.882 212.798 197.114C212.798 197.809 214.752 197.245 214.752 198.366C214.752 198.904 214.237 199.242 213.449 199.242C212.99 199.264 212.534 199.148 212.146 198.91Z" fill="black"/>
<path d="M135.851 215.869V217.058H135.199V215.869C134.252 215.858 133.336 215.545 132.594 214.98L132.985 214.179C133.605 214.677 134.379 214.965 135.186 214.999V212.627C134.014 212.346 132.776 212.001 132.776 210.593C132.776 209.58 133.532 208.716 135.186 208.566V207.396H135.838V208.56C136.606 208.575 137.356 208.791 138.007 209.185L137.655 210.005C137.108 209.674 136.483 209.478 135.838 209.436V211.82C137.036 212.108 138.313 212.446 138.313 213.848C138.326 214.855 137.538 215.738 135.851 215.869ZM135.199 211.651V209.436C134.248 209.548 133.831 210.011 133.831 210.556C133.831 211.1 134.405 211.457 135.173 211.651H135.199ZM137.31 213.904C137.31 213.278 136.658 212.99 135.877 212.79V214.993C136.847 214.899 137.284 214.461 137.284 213.929L137.31 213.904Z" fill="black"/>
<path d="M148.637 214.035H147.204V215.806H146.175V214.041H142.025V213.303L145.842 208.609H146.995L143.335 213.14H146.207V211.582H147.204V213.14H148.624L148.637 214.035Z" fill="black"/>
<path d="M149.275 212.214C149.275 209.88 150.578 208.547 152.33 208.547C154.082 208.547 155.365 209.88 155.365 212.214C155.365 214.548 154.063 215.881 152.33 215.881C150.597 215.881 149.275 214.555 149.275 212.214ZM154.304 212.214C154.304 210.381 153.489 209.461 152.349 209.461C151.209 209.461 150.363 210.381 150.363 212.214C150.363 214.048 151.177 214.968 152.349 214.968C153.522 214.968 154.304 214.048 154.304 212.214Z" fill="black"/>
<path d="M156.238 215.18C156.237 215.088 156.254 214.996 156.29 214.911C156.327 214.825 156.38 214.748 156.448 214.683C156.517 214.618 156.598 214.567 156.687 214.533C156.776 214.499 156.872 214.483 156.968 214.486C157.062 214.485 157.156 214.502 157.243 214.537C157.33 214.572 157.409 214.623 157.474 214.688C157.54 214.753 157.592 214.83 157.625 214.915C157.659 214.999 157.675 215.09 157.671 215.18C157.675 215.271 157.659 215.362 157.626 215.448C157.592 215.533 157.541 215.611 157.475 215.677C157.41 215.743 157.331 215.795 157.244 215.831C157.157 215.868 157.063 215.887 156.968 215.887C156.871 215.888 156.776 215.871 156.686 215.835C156.597 215.8 156.516 215.748 156.448 215.682C156.38 215.616 156.326 215.538 156.29 215.451C156.254 215.365 156.237 215.273 156.238 215.18Z" fill="black"/>
<path d="M164.673 213.772C164.673 215.074 163.526 215.881 161.702 215.881C159.878 215.881 158.745 215.074 158.745 213.772C158.737 213.387 158.86 213.009 159.095 212.696C159.33 212.384 159.664 212.153 160.048 212.039C159.731 211.913 159.462 211.698 159.276 211.422C159.09 211.146 158.995 210.822 159.006 210.493C159.006 209.292 160.08 208.547 161.696 208.547C163.311 208.547 164.399 209.292 164.399 210.493C164.407 210.823 164.31 211.148 164.122 211.424C163.934 211.7 163.662 211.915 163.344 212.039C163.731 212.15 164.07 212.38 164.31 212.692C164.549 213.005 164.677 213.384 164.673 213.772ZM163.611 213.741C163.611 212.953 162.881 212.458 161.702 212.458C160.523 212.458 159.813 212.953 159.813 213.741C159.813 214.53 160.517 215.055 161.702 215.055C162.888 215.055 163.611 214.555 163.611 213.741ZM160.067 210.531C160.067 211.238 160.673 211.682 161.702 211.682C162.731 211.682 163.363 211.238 163.363 210.531C163.363 209.824 162.712 209.373 161.702 209.373C160.693 209.373 160.067 209.817 160.067 210.531Z" fill="black"/>
<path d="M165.658 212.214C165.658 209.88 166.96 208.547 168.706 208.547C170.452 208.547 171.748 209.88 171.748 212.214C171.748 214.548 170.445 215.881 168.706 215.881C166.967 215.881 165.658 214.555 165.658 212.214ZM170.68 212.214C170.68 210.381 169.872 209.461 168.726 209.461C167.579 209.461 166.772 210.381 166.772 212.214C166.772 214.048 167.579 214.968 168.726 214.968C169.872 214.968 170.654 214.048 170.654 212.214H170.68Z" fill="black"/>
<path d="M204.715 101.277L142.333 101.371C139.89 101.375 137.913 103.28 137.917 105.627L138.009 162.032C138.013 164.378 139.996 166.278 142.439 166.274L204.821 166.18C207.264 166.176 209.241 164.271 209.237 161.924L209.145 105.52C209.141 103.173 207.157 101.273 204.715 101.277Z" fill="#FF7C44"/>
<path d="M161.634 141.952L160.175 141.954L160.195 154.264L161.654 154.262L161.634 141.952Z" fill="#263238"/>
<path d="M166.767 141.957L165.308 141.959L165.318 148.242L166.777 148.24L166.767 141.957Z" fill="#263238"/>
<path d="M181.456 141.928L179.997 141.931L180.007 148.214L181.466 148.212L181.456 141.928Z" fill="#263238"/>
<path d="M187.93 141.925L186.471 141.927L186.491 154.236L187.95 154.234L187.93 141.925Z" fill="#263238"/>
<path d="M156.088 129.063L160.231 142.587L187.934 142.543L192.279 129.557C192.279 129.557 189.367 128.675 187.517 129.057L186.97 114.663C186.958 114.34 186.863 114.026 186.696 113.746C186.528 113.466 186.291 113.23 186.007 113.058C185.723 112.886 185.399 112.783 185.064 112.759C184.729 112.734 184.393 112.788 184.085 112.917L181.401 114.05H165.768L163.97 113.186C163.659 113.036 163.312 112.965 162.964 112.98C162.616 112.996 162.278 113.097 161.982 113.274C161.687 113.452 161.443 113.699 161.276 113.992C161.108 114.286 161.022 114.616 161.026 114.951L161.156 129.194C159.497 128.798 157.768 128.753 156.088 129.063Z" fill="#FAFAFA"/>
<path d="M165.65 136.103C167.207 137.721 169.261 138.817 171.513 139.232C173.75 139.637 176.05 139.59 178.268 139.095C179.479 138.851 180.782 138.425 181.407 137.405C182.033 136.385 181.778 135.014 181.485 133.825C181.181 132.278 180.65 130.78 179.909 129.376C179.531 128.677 179.006 128.061 178.367 127.567C177.727 127.074 176.988 126.714 176.196 126.51C174.027 126.078 171.851 127.286 170.249 128.756C168.136 130.703 166.591 133.148 165.768 135.847" fill="#E0E0E0"/>
<path d="M166.035 134.745C165.924 134.745 165.826 130.139 165.82 124.451C165.813 118.762 165.891 114.156 166.002 114.156C166.113 114.156 166.211 118.768 166.217 124.451C166.224 130.133 166.145 134.745 166.035 134.745Z" fill="#263238"/>
<path d="M181.688 134.726C181.577 134.726 181.479 130.114 181.466 124.432C181.453 118.749 181.538 114.131 181.649 114.131C181.759 114.131 181.857 118.743 181.87 124.425C181.883 130.108 181.792 134.72 181.688 134.726Z" fill="#263238"/>
<path d="M187.498 129.057C187.265 129.149 187.023 129.218 186.775 129.263L186.384 129.363L185.935 129.526L185.414 129.72L184.86 130.008C183.941 130.514 183.186 131.255 182.678 132.148C182.057 133.304 181.797 134.608 181.929 135.903V136.097H181.727L174.321 136.128H166.022H165.846V135.966C165.816 134.764 165.479 133.588 164.863 132.542C164.392 131.729 163.772 131.004 163.032 130.402C162.365 129.89 161.637 129.456 160.863 129.107C161.088 129.148 161.307 129.215 161.515 129.307C162.105 129.549 162.659 129.864 163.163 130.246C163.949 130.842 164.612 131.574 165.117 132.405C165.784 133.483 166.156 134.706 166.198 135.959L166.022 135.79H174.321H181.727L181.551 135.984C181.419 134.617 181.714 133.242 182.398 132.036C182.945 131.11 183.756 130.354 184.736 129.858L185.316 129.582L185.863 129.407L186.326 129.263L186.729 129.188C186.98 129.12 187.238 129.076 187.498 129.057Z" fill="#263238"/>
<path d="M165.735 136.041C165.735 136.103 165.221 136.203 164.432 136.541C163.43 136.969 162.559 137.635 161.901 138.478C161.243 139.32 160.821 140.31 160.674 141.354C160.55 142.161 160.602 142.674 160.537 142.681C160.368 142.25 160.319 141.784 160.394 141.329C160.469 140.216 160.878 139.148 161.572 138.254C162.265 137.36 163.214 136.678 164.302 136.291C164.749 136.09 165.243 136.003 165.735 136.041Z" fill="#263238"/>
<path d="M187.641 142.824C187.576 142.824 187.563 142.255 187.329 141.385C187.041 140.252 186.478 139.2 185.686 138.317C184.893 137.433 183.893 136.743 182.769 136.303C181.909 135.959 181.323 135.865 181.336 135.802C181.861 135.768 182.388 135.852 182.873 136.046C184.078 136.446 185.15 137.146 185.979 138.075C186.808 139.005 187.364 140.13 187.589 141.335C187.726 141.821 187.744 142.33 187.641 142.824Z" fill="#263238"/>
<path d="M209.612 215.125H209.54H209.488C209.446 215.11 209.408 215.087 209.377 215.056L207.052 212.772C206.686 212.424 206.425 211.986 206.298 211.507C206.17 211.027 206.181 210.523 206.329 210.049C206.427 209.76 206.598 209.498 206.828 209.288C207.058 209.079 207.339 208.927 207.645 208.848C207.951 208.77 208.273 208.765 208.581 208.836C208.889 208.907 209.174 209.051 209.41 209.255C209.485 209.33 209.552 209.412 209.612 209.499C209.674 209.406 209.746 209.32 209.827 209.242C210.001 209.086 210.206 208.966 210.43 208.887C210.654 208.809 210.892 208.774 211.13 208.785C211.526 208.773 211.915 208.889 212.233 209.117C212.552 209.344 212.78 209.669 212.882 210.037C213.031 210.511 213.042 211.015 212.915 211.495C212.788 211.975 212.526 212.412 212.159 212.759L209.833 215.043C209.772 215.096 209.694 215.125 209.612 215.125ZM208.12 209.386C207.859 209.37 207.6 209.444 207.391 209.596C207.181 209.747 207.036 209.966 206.98 210.212C206.865 210.579 206.857 210.969 206.957 211.34C207.057 211.711 207.261 212.048 207.547 212.315L209.638 214.368L211.729 212.315C212.014 212.047 212.218 211.71 212.319 211.34C212.42 210.969 212.414 210.58 212.302 210.212C212.245 209.967 212.099 209.749 211.89 209.597C211.681 209.446 211.423 209.371 211.162 209.386C211.007 209.374 210.852 209.392 210.705 209.441C210.558 209.489 210.423 209.566 210.309 209.668C210.086 209.926 209.964 210.252 209.964 210.588C209.969 210.64 209.958 210.692 209.931 210.738C209.899 210.801 209.846 210.852 209.78 210.883C209.714 210.914 209.639 210.922 209.568 210.907C209.496 210.892 209.432 210.854 209.385 210.799C209.339 210.745 209.313 210.677 209.312 210.606V210.569C209.312 210.24 209.19 209.923 208.967 209.674C208.855 209.571 208.721 209.493 208.575 209.443C208.43 209.394 208.274 209.374 208.12 209.386Z" fill="#FF7C44"/>
<path d="M198.159 83.7164C198.159 83.804 187.151 83.8791 173.583 83.8791C160.015 83.8791 149.006 83.804 149.006 83.7164C149.006 83.6288 160.008 83.5537 173.583 83.5537C187.157 83.5537 198.159 83.6225 198.159 83.7164Z" fill="#263238"/>
<path d="M191.471 77.1699H154.851V79.1725H191.471V77.1699Z" fill="#FF7C44"/>
<path d="M206.823 183.571C206.823 183.659 191.939 183.734 173.603 183.734C155.266 183.734 140.382 183.659 140.382 183.571C140.382 183.483 155.266 183.408 173.603 183.408C191.939 183.408 206.823 183.477 206.823 183.571Z" fill="#263238"/>
<path d="M197.469 178.057C197.469 178.151 186.774 178.22 173.583 178.22C160.393 178.22 149.691 178.151 149.691 178.057C149.691 177.963 160.387 177.895 173.583 177.895C186.78 177.895 197.469 177.97 197.469 178.057Z" fill="#263238"/>
<path d="M218.746 56.5813C217.934 56.6845 217.115 56.7263 216.296 56.7065C214.772 56.7065 212.649 56.7628 210.258 56.7628H210.095V56.6001C210.05 56.2935 210.004 55.9743 209.959 55.6426C209.548 52.8202 209.21 50.3045 209.014 48.6711L209.131 48.7712C208.402 48.7876 207.672 48.7478 206.949 48.6523C207.673 48.5615 208.402 48.5238 209.131 48.5397H209.236V48.646C209.516 50.2669 209.887 52.7764 210.317 55.5988C210.362 55.9242 210.408 56.2246 210.454 56.5563L210.265 56.3999C212.655 56.3999 214.779 56.3999 216.303 56.4562C217.119 56.4446 217.935 56.4864 218.746 56.5813Z" fill="#263238"/>
<path d="M210.016 54.891C210.23 54.8487 210.449 54.8298 210.667 54.8347L212.485 54.7784C214.035 54.7784 216.217 54.7283 218.744 54.7158L218.569 54.8597C218.751 53.8459 218.946 52.7507 219.155 51.618C219.266 51.036 219.37 50.4603 219.467 49.9158L219.656 50.1286C216.719 50.1286 214.133 50.1286 212.276 50.066L210.088 50.016C209.821 50.0218 209.554 49.9987 209.293 49.9471C209.554 49.8961 209.821 49.8751 210.088 49.8845L212.276 49.8282C214.133 49.8282 216.719 49.7719 219.656 49.7656H219.884L219.845 49.9784C219.741 50.5291 219.637 51.0986 219.533 51.6806C219.324 52.8133 219.116 53.9085 218.927 54.9223V55.0725H218.77C216.243 55.0725 214.061 55.0412 212.511 55.0099L210.693 54.9599C210.465 54.9697 210.237 54.9465 210.016 54.891Z" fill="#263238"/>
<path d="M212.379 58.7968C212.321 58.7968 212.314 58.4776 211.963 58.2523C211.867 58.1934 211.758 58.157 211.645 58.1461C211.531 58.1353 211.417 58.1502 211.311 58.1897C211.17 58.2236 211.045 58.3018 210.956 58.4118C210.867 58.5218 210.818 58.6573 210.818 58.7968C210.818 58.9363 210.867 59.0718 210.956 59.1818C211.045 59.2917 211.17 59.3699 211.311 59.4038C211.417 59.4433 211.531 59.4583 211.645 59.4474C211.758 59.4365 211.867 59.4001 211.963 59.3412C212.314 59.1159 212.321 58.7842 212.379 58.7968C212.438 58.8093 212.438 58.8719 212.425 59.0158C212.401 59.2237 212.293 59.4144 212.125 59.5477C211.997 59.6533 211.843 59.725 211.677 59.7557C211.512 59.7864 211.341 59.7751 211.181 59.723C210.969 59.6647 210.782 59.5415 210.649 59.3722C210.516 59.2028 210.444 58.9964 210.444 58.7842C210.444 58.5721 210.516 58.3657 210.649 58.1963C210.782 58.0269 210.969 57.9038 211.181 57.8455C211.341 57.7934 211.512 57.7821 211.677 57.8128C211.843 57.8435 211.997 57.9152 212.125 58.0208C212.293 58.1541 212.401 58.3448 212.425 58.5527C212.438 58.7279 212.405 58.7968 212.379 58.7968Z" fill="#263238"/>
<path d="M217.847 58.7968C217.782 58.7968 217.782 58.4776 217.43 58.2523C217.334 58.1938 217.225 58.1577 217.112 58.1469C216.999 58.136 216.885 58.1507 216.778 58.1897C216.638 58.2236 216.513 58.3018 216.423 58.4118C216.334 58.5218 216.285 58.6573 216.285 58.7968C216.285 58.9363 216.334 59.0718 216.423 59.1818C216.513 59.2917 216.638 59.3699 216.778 59.4038C216.885 59.4428 216.999 59.4575 217.112 59.4466C217.225 59.4358 217.334 59.3997 217.43 59.3412C217.782 59.1159 217.782 58.7842 217.847 58.7968C217.912 58.8093 217.905 58.8719 217.892 59.0158C217.868 59.2237 217.761 59.4144 217.593 59.5477C217.465 59.6533 217.31 59.725 217.145 59.7557C216.979 59.7864 216.808 59.7751 216.648 59.723C216.436 59.6647 216.249 59.5415 216.116 59.3722C215.983 59.2028 215.911 58.9964 215.911 58.7842C215.911 58.5721 215.983 58.3657 216.116 58.1963C216.249 58.0269 216.436 57.9038 216.648 57.8455C216.808 57.7934 216.979 57.7821 217.145 57.8128C217.31 57.8435 217.465 57.9152 217.593 58.0208C217.761 58.1541 217.868 58.3448 217.892 58.5527C217.905 58.7279 217.866 58.7968 217.847 58.7968Z" fill="#263238"/>
<path d="M223.492 49.4469C223.492 50.1341 223.28 50.8059 222.883 51.3772C222.485 51.9485 221.92 52.3937 221.259 52.6564C220.598 52.9191 219.871 52.9875 219.17 52.853C218.468 52.7184 217.824 52.387 217.319 51.9006C216.813 51.4143 216.47 50.7948 216.331 50.1206C216.192 49.4465 216.265 48.7479 216.539 48.1134C216.814 47.4789 217.278 46.9368 217.874 46.5559C218.469 46.175 219.169 45.9724 219.884 45.9736C220.358 45.9736 220.828 46.0635 221.266 46.2381C221.705 46.4128 222.103 46.6687 222.438 46.9913C222.773 47.3139 223.039 47.6968 223.22 48.1182C223.401 48.5396 223.493 48.9911 223.492 49.4469Z" fill="#FF7C44"/>
<path d="M220.218 48.0449V50.8486H219.807V48.3954H219.156V48.0449H220.218Z" fill="white"/>
<path d="M298.136 236.043L253.151 262.01C248.599 261.054 243.298 261.611 239.614 263.707C237.698 264.799 236.502 266.131 236 267.528L247.889 265.792L252.387 268.424L250.678 271.999L238.669 273.757C238.92 273.931 239.188 274.106 239.472 274.27C244.494 277.217 252.698 277.25 257.796 274.352C261.53 272.228 262.551 269.122 260.864 266.453L305.849 240.486C310.401 241.447 315.702 240.89 319.386 238.794C321.302 237.702 322.498 236.365 323 234.973L311.111 236.709L306.613 234.078L308.322 230.508L320.331 228.745C320.08 228.57 319.812 228.401 319.528 228.231C314.506 225.289 306.302 225.251 301.204 228.15C297.47 230.268 296.449 233.374 298.136 236.043Z" fill="#455A64"/>
</svg>
