<svg width="9" height="16" viewBox="0 0 9 16" fill="none" xmlns="http://www.w3.org/2000/svg">
<path d="M2.00005 14.9999C1.7664 15.0004 1.53996 14.919 1.36005 14.7699C1.25879 14.686 1.17509 14.5829 1.11374 14.4665C1.05239 14.3502 1.01459 14.2229 1.00251 14.0919C0.990439 13.9609 1.00432 13.8289 1.04337 13.7033C1.08241 13.5777 1.14585 13.461 1.23005 13.3599L5.71005 7.99994L1.39005 2.62994C1.30699 2.52765 1.24495 2.40996 1.20752 2.28362C1.17009 2.15728 1.158 2.02479 1.17194 1.89376C1.18587 1.76273 1.22557 1.63575 1.28875 1.52011C1.35192 1.40447 1.43732 1.30246 1.54005 1.21994C1.64352 1.1289 1.76468 1.06024 1.89595 1.01825C2.02721 0.976258 2.16573 0.961855 2.30283 0.97594C2.43992 0.990024 2.57262 1.03229 2.6926 1.1001C2.81259 1.1679 2.91726 1.25977 3.00005 1.36994L7.83005 7.36994C7.97713 7.54887 8.05754 7.77332 8.05754 8.00494C8.05754 8.23657 7.97713 8.46101 7.83005 8.63994L2.83005 14.6399C2.72973 14.761 2.6023 14.8566 2.45809 14.9192C2.31388 14.9817 2.15696 15.0094 2.00005 14.9999Z" fill="#262322"/>
</svg>
