<svg width="347" height="303" viewBox="0 0 347 303" fill="none" xmlns="http://www.w3.org/2000/svg">
<rect width="347" height="303" rx="8" fill="#FFDED0"/>
<path d="M74.0031 213.092C73.7509 228.555 88.8906 236.711 107.248 236.711C125.605 236.711 140.467 228.555 140.467 213.092H74.0031Z" fill="#FF7C44"/>
<path d="M83.7422 224.901C70.7591 218.38 70.7591 207.804 83.7422 201.283C96.7253 194.761 117.77 194.761 130.753 201.283C143.736 207.804 143.736 218.38 130.753 224.901C117.77 231.423 96.7253 231.423 83.7422 224.901Z" fill="#FF7C44"/>
<path opacity="0.4" d="M83.7422 224.901C70.7591 218.38 70.7591 207.804 83.7422 201.283C96.7253 194.761 117.77 194.761 130.753 201.283C143.736 207.804 143.736 218.38 130.753 224.901C117.77 231.423 96.7253 231.423 83.7422 224.901Z" fill="white"/>
<path opacity="0.5" d="M85.4296 225.665C97.917 231.143 116.579 231.143 129.066 225.665C133.501 221.126 131.971 215.46 124.431 211.677C114.944 206.911 99.5519 206.911 90.0646 211.677C82.5251 215.46 80.9946 221.111 85.4296 225.665Z" fill="#FF7C44"/>
<path d="M98.6742 229.728H98.622C98.5465 229.723 98.4731 229.704 98.4059 229.674C98.3387 229.643 98.2792 229.601 98.2307 229.551C98.1822 229.5 98.1457 229.441 98.1233 229.378C98.1009 229.315 98.0931 229.249 98.1002 229.184L106.674 148.054C106.692 147.923 106.767 147.802 106.883 147.718C107 147.633 107.149 147.591 107.301 147.6C107.376 147.605 107.45 147.624 107.517 147.655C107.584 147.685 107.643 147.727 107.692 147.778C107.74 147.828 107.777 147.887 107.799 147.95C107.822 148.013 107.83 148.079 107.822 148.144L99.2481 229.274C99.2351 229.399 99.1689 229.514 99.0626 229.599C98.9564 229.683 98.8178 229.729 98.6742 229.728Z" fill="#37474F"/>
<path d="M139.345 209.256C139.234 209.257 139.126 209.229 139.033 209.177C138.94 209.124 138.867 209.049 138.823 208.961L106.726 148.31C106.661 148.19 106.654 148.052 106.707 147.927C106.759 147.803 106.866 147.701 107.004 147.645C107.143 147.588 107.301 147.582 107.444 147.628C107.588 147.673 107.705 147.766 107.769 147.887L139.866 208.545C139.899 208.605 139.917 208.669 139.92 208.735C139.924 208.801 139.912 208.866 139.886 208.928C139.861 208.99 139.821 209.047 139.77 209.096C139.718 209.144 139.657 209.183 139.588 209.211C139.512 209.241 139.429 209.257 139.345 209.256Z" fill="#37474F"/>
<path d="M83.7423 201.79C83.6706 201.788 83.6 201.775 83.5335 201.752C83.4616 201.729 83.3956 201.694 83.3395 201.649C83.2833 201.604 83.2381 201.549 83.2065 201.489C83.1749 201.428 83.1576 201.362 83.1555 201.296C83.1534 201.229 83.1666 201.163 83.1944 201.101L106.674 147.917C106.701 147.855 106.741 147.799 106.794 147.751C106.846 147.703 106.909 147.664 106.978 147.637C107.048 147.611 107.123 147.596 107.199 147.595C107.275 147.594 107.351 147.605 107.421 147.63C107.564 147.679 107.678 147.774 107.74 147.896C107.802 148.018 107.806 148.156 107.752 148.28L84.2727 201.464C84.2313 201.558 84.1588 201.639 84.0644 201.697C83.9699 201.755 83.8578 201.787 83.7423 201.79Z" fill="#37474F"/>
<path d="M207.503 145.897C207.251 161.361 222.391 169.516 240.748 169.516C259.105 169.516 273.993 161.361 273.993 145.897H207.503Z" fill="#FF7C44"/>
<path d="M217.243 157.707C204.26 151.186 204.26 140.609 217.243 134.088C230.226 127.567 251.279 127.567 264.262 134.088C277.246 140.609 277.246 151.186 264.262 157.707C251.279 164.228 230.226 164.228 217.243 157.707Z" fill="#FF7C44"/>
<path opacity="0.4" d="M217.243 157.707C204.26 151.186 204.26 140.609 217.243 134.088C230.226 127.567 251.279 127.567 264.262 134.088C277.246 140.609 277.246 151.186 264.262 157.707C251.279 164.228 230.226 164.228 217.243 157.707Z" fill="white"/>
<path opacity="0.5" d="M218.93 158.471C231.417 163.948 250.079 163.948 262.566 158.471C267.001 153.932 265.471 148.265 257.931 144.483C248.444 139.717 233.052 139.717 223.565 144.483C216.025 148.265 214.495 153.917 218.93 158.471Z" fill="#FF7C44"/>
<path d="M232.174 162.534H232.122C232.047 162.528 231.973 162.509 231.906 162.479C231.839 162.448 231.779 162.406 231.731 162.356C231.682 162.305 231.646 162.247 231.623 162.184C231.601 162.121 231.593 162.054 231.6 161.989L240.174 80.8589C240.19 80.727 240.264 80.6056 240.381 80.5208C240.498 80.436 240.649 80.3944 240.801 80.4049C240.876 80.4106 240.95 80.4293 241.017 80.4598C241.084 80.4903 241.143 80.5321 241.192 80.5827C241.24 80.6334 241.277 80.6919 241.299 80.7548C241.322 80.8178 241.33 80.884 241.322 80.9496L232.748 162.08C232.737 162.205 232.671 162.321 232.565 162.406C232.458 162.49 232.318 162.536 232.174 162.534Z" fill="#37474F"/>
<path d="M272.855 142.062C272.743 142.062 272.634 142.034 272.54 141.982C272.446 141.93 272.371 141.855 272.324 141.767L240.227 81.1161C240.18 80.9974 240.185 80.8676 240.242 80.7519C240.298 80.6363 240.402 80.543 240.533 80.4902C240.664 80.4375 240.813 80.4289 240.951 80.4663C241.089 80.5037 241.206 80.5843 241.28 80.6925L273.377 141.351C273.439 141.471 273.445 141.609 273.393 141.733C273.341 141.857 273.235 141.959 273.098 142.017C273.021 142.046 272.939 142.061 272.855 142.062Z" fill="#37474F"/>
<path d="M217.243 134.595C217.174 134.606 217.103 134.606 217.034 134.595C216.892 134.546 216.778 134.451 216.716 134.329C216.654 134.207 216.65 134.069 216.704 133.945L240.183 80.7608C240.21 80.6992 240.251 80.643 240.304 80.5952C240.356 80.5474 240.419 80.5091 240.488 80.4824C240.558 80.4557 240.633 80.4411 240.709 80.4396C240.784 80.438 240.86 80.4495 240.931 80.4734C241.002 80.4972 241.066 80.533 241.121 80.5786C241.176 80.6242 241.22 80.6787 241.251 80.7391C241.282 80.7996 241.298 80.8646 241.3 80.9307C241.302 80.9967 241.289 81.0624 241.261 81.124L217.782 134.308C217.734 134.396 217.658 134.471 217.562 134.522C217.466 134.573 217.355 134.599 217.243 134.595Z" fill="#37474F"/>
<path d="M244.688 72.6885C244.627 75.2001 242.853 78.1582 240.74 79.2173C240.485 79.3822 240.185 79.4876 239.87 79.5233C239.555 79.5591 239.235 79.5241 238.94 79.4216C238.322 79.1114 237.948 78.249 237.948 77.1066C238.01 75.5423 238.54 74.0192 239.487 72.6885H236.879C236.113 74.0678 235.701 75.5752 235.67 77.1066C235.67 79.0055 236.453 80.4807 237.818 81.1691C238.347 81.4332 238.947 81.5715 239.557 81.5701C240.4 81.5527 241.222 81.3413 241.94 80.9573C244.766 79.5426 246.983 75.934 247.044 72.6885H244.688Z" fill="#455A64"/>
<path d="M197.659 219.175C185.111 212.873 164.762 212.873 152.223 219.175C145.944 222.329 142.831 226.46 142.84 230.591V234.865C142.84 238.996 145.944 243.126 152.223 246.273C164.771 252.575 185.111 252.575 197.659 246.273C203.938 243.126 207.051 238.996 207.042 234.865C207.042 233.586 207.042 231.839 207.042 230.591C207.051 226.483 203.947 222.329 197.659 219.175Z" fill="#263238"/>
<path d="M152.223 219.175C139.674 225.485 139.674 235.698 152.223 242C164.771 248.302 185.111 248.302 197.659 242C210.208 235.698 210.208 225.485 197.659 219.175C185.111 212.866 164.815 212.866 152.223 219.175Z" fill="#455A64"/>
<path d="M193.72 213.871C183.346 208.667 166.528 208.667 156.162 213.871C150.945 216.481 148.397 219.924 148.405 223.305V229.592C148.405 233.012 150.971 236.401 156.162 239.026C166.528 244.238 183.346 244.238 193.72 239.026C198.938 236.424 201.486 233.012 201.477 229.592C201.477 228.541 201.477 224.364 201.477 223.305C201.486 219.893 198.903 216.481 193.72 213.871Z" fill="#37474F"/>
<path d="M156.163 213.872C145.788 219.084 145.788 227.489 156.163 232.74C166.537 237.99 183.346 237.952 193.721 232.74C204.095 227.527 204.095 219.122 193.721 213.872C183.346 208.621 166.554 208.659 156.163 213.872Z" fill="#455A64"/>
<path d="M112.9 139.482H110.57C110.605 139.7 110.623 139.92 110.622 140.141C110.622 142.675 108.813 145.724 106.665 146.806C106.407 146.969 106.107 147.073 105.791 147.108C105.475 147.144 105.153 147.11 104.856 147.01C104.248 146.7 103.874 145.837 103.874 144.695C103.891 143.752 104.1 142.82 104.491 141.941H102.039C101.731 142.835 101.57 143.762 101.561 144.695C101.561 146.586 102.334 148.069 103.7 148.757C104.229 149.021 104.829 149.16 105.439 149.158C106.281 149.141 107.104 148.93 107.822 148.546C110.683 147.108 112.926 143.416 112.926 140.141C112.931 139.921 112.922 139.701 112.9 139.482Z" fill="#455A64"/>
<path d="M195.998 219.22C195.998 216.511 193.938 213.803 189.833 211.738C181.607 207.607 168.276 207.607 160.049 211.738C155.936 213.803 153.884 216.511 153.884 219.22V221.383C153.884 224.092 155.936 226.8 160.049 228.865C168.276 232.996 181.607 232.996 189.833 228.865C193.938 226.8 195.998 224.092 195.998 221.383V219.22Z" fill="#37474F"/>
<path d="M189.833 211.738C188.389 210.981 186.163 207.774 185.146 203.492C182.781 193.536 182.807 177.558 184.728 171.506H165.145C167.076 177.558 167.102 193.536 164.736 203.492C163.719 207.774 161.493 210.944 160.049 211.738C155.936 213.803 153.884 216.512 153.884 219.22C153.884 221.928 155.936 224.637 160.049 226.702C168.276 230.833 181.607 230.833 189.833 226.702C193.938 224.637 195.998 221.928 195.998 219.22C195.998 216.512 193.938 213.803 189.833 211.738Z" fill="#455A64"/>
<g opacity="0.15">
<path d="M169.242 175.122C169.242 178.995 168.99 206.775 166.111 210.301C163.233 213.826 159.963 214.083 157.763 217.109C155.563 220.135 159.033 224.342 164.259 225.719C163.406 224.909 162.846 223.898 162.65 222.814C162.65 222.814 166.129 226.369 173.885 225.719C167.033 224.705 164.32 220.196 165.772 217.994C167.32 215.672 169.824 214.915 171.242 210.83C172.337 207.675 172.32 175.621 172.32 175.621C171.28 175.53 170.25 175.363 169.242 175.122Z" fill="white"/>
</g>
<g opacity="0.15">
<path d="M178.293 175.553C178.545 182.158 178.71 208.477 180.901 211.647C182.641 214.121 183.701 215.528 184.058 218.282C184.415 221.036 181.58 223.411 179.484 224.016C181.367 223.875 183.17 223.292 184.702 222.329C184.702 222.329 182.962 225.431 176.066 226.868C180.71 227.133 188.119 225.991 192.241 221.482C195.719 217.662 192.093 215.853 189.154 214.371C186.215 212.888 184.675 211.564 183.258 208.061C180.154 200.398 181.519 174.91 181.519 174.91C180.466 175.204 179.387 175.419 178.293 175.553Z" fill="black"/>
</g>
<g opacity="0.25">
<path d="M183.886 175.19C184.073 173.945 184.364 172.714 184.756 171.506H165.146C165.547 172.712 165.837 173.944 166.016 175.19C171.042 177.551 178.834 177.551 183.886 175.19Z" fill="black"/>
</g>
<path d="M165.616 173.837C163.007 172.543 161.755 170.848 161.755 169.154C161.755 167.459 163.042 165.764 165.616 164.471C170.764 161.883 179.112 161.883 184.26 164.471C186.869 165.764 188.121 167.459 188.121 169.154C188.121 170.848 186.834 172.543 184.26 173.837C179.112 176.424 170.764 176.424 165.616 173.837Z" fill="#37474F"/>
<g opacity="0.25">
<path d="M187.234 166.763C186.454 165.819 185.437 165.043 184.26 164.493C179.112 161.906 170.764 161.906 165.616 164.493C164.443 165.045 163.429 165.821 162.65 166.763C162.981 168.087 164.146 169.365 166.172 170.379C171.016 172.815 178.868 172.815 183.712 170.379C185.73 169.365 186.895 168.087 187.234 166.763Z" fill="black"/>
</g>
<path d="M166.173 168.851C163.747 167.64 162.538 166.044 162.538 164.448C162.538 162.852 163.747 161.255 166.173 160.045C171.017 157.609 178.869 157.609 183.713 160.045C186.13 161.255 187.348 162.852 187.348 164.448C187.348 166.044 186.13 167.64 183.713 168.851C178.869 171.257 171.017 171.257 166.173 168.851Z" fill="#37474F"/>
<g opacity="0.25">
<path d="M186.469 162.178C185.739 161.309 184.798 160.591 183.712 160.075C178.869 157.639 171.016 157.639 166.173 160.075C165.085 160.589 164.144 161.307 163.416 162.178C163.661 162.918 164.081 163.604 164.651 164.193C165.22 164.783 165.925 165.261 166.72 165.598C171.26 167.867 178.617 167.867 183.156 165.598C183.953 165.262 184.66 164.784 185.231 164.195C185.802 163.606 186.224 162.919 186.469 162.178Z" fill="black"/>
</g>
<path d="M166.719 163.873C164.45 162.731 163.319 161.24 163.319 159.742C163.319 158.244 164.45 156.754 166.719 155.619C171.259 153.35 178.616 153.35 183.155 155.619C185.425 156.754 186.564 158.252 186.564 159.742C186.564 161.233 185.425 162.731 183.155 163.873C178.616 166.15 171.259 166.15 166.719 163.873Z" fill="#37474F"/>
<g opacity="0.25">
<path d="M185.625 157.45C184.958 156.696 184.116 156.073 183.155 155.619C178.616 153.35 171.259 153.35 166.72 155.619C165.763 156.075 164.925 156.698 164.259 157.45C164.79 158.735 165.871 159.792 167.276 160.4C171.511 162.526 178.372 162.526 182.607 160.4C184.013 159.792 185.094 158.735 185.625 157.45Z" fill="black"/>
</g>
<g opacity="0.15">
<path d="M184.571 168.374C186.31 167.171 185.145 164.364 183.762 163.547C185.275 162.034 184.449 159.923 182.606 158.887C181.468 159.441 180.243 159.849 178.971 160.097C180.814 161.126 181.719 163.441 180.206 164.947C181.588 165.771 182.771 168.676 180.997 169.887C182.24 170.802 183.606 173.359 181.527 174.887C182.786 174.532 183.981 174.022 185.075 173.374C187.119 171.861 185.823 169.289 184.571 168.374Z" fill="black"/>
</g>
<g opacity="0.15">
<path d="M165.302 168.374C163.563 167.171 164.728 164.364 166.111 163.547C164.606 162.034 165.424 159.923 167.276 158.887C168.412 159.444 169.637 159.852 170.911 160.097C169.059 161.126 168.163 163.441 169.676 164.947C168.293 165.771 167.067 168.676 168.885 169.887C167.633 170.802 166.276 173.359 168.346 174.887C167.089 174.533 165.897 174.024 164.806 173.374C162.754 171.861 164.059 169.289 165.302 168.374Z" fill="white"/>
</g>
<path d="M183.947 152.018C183.442 151.624 182.034 148.636 181.607 144.006C180.173 128.263 180.181 108.003 180.181 92.6152H169.685C169.685 107.995 169.685 128.172 168.259 143.961C167.833 148.613 166.416 151.632 165.911 152.025C165.372 152.383 164.929 152.839 164.615 153.362C164.301 153.885 164.123 154.462 164.094 155.051C164.094 156.451 165.155 157.843 167.276 158.902C171.503 161.036 178.373 161.036 182.607 158.902C184.721 157.843 185.782 156.451 185.782 155.051C185.749 154.46 185.568 153.882 185.251 153.358C184.934 152.834 184.489 152.376 183.947 152.018Z" fill="#455A64"/>
<g opacity="0.15">
<path d="M182.607 152.706C181.094 150.58 179.998 149.166 179.502 143.953C179.067 139.134 179.433 94.1056 179.502 92.6152H178.728L177.78 92.8725C177.78 100.12 177.233 145.746 178.476 149.718C179.72 153.69 182.563 157.661 178.937 160.097C180.21 159.852 181.435 159.444 182.572 158.887C184.642 156.754 184.12 154.832 182.607 152.706Z" fill="black"/>
</g>
<g opacity="0.15">
<path d="M167.276 152.706C168.79 150.58 169.885 149.166 170.381 143.953C170.816 139.134 170.442 94.1056 170.381 92.6152H171.111L172.059 92.8725C172.059 100.12 172.607 145.746 171.355 149.718C170.103 153.69 167.268 157.661 170.903 160.097C169.629 159.853 168.404 159.445 167.268 158.887C165.242 156.754 165.763 154.832 167.276 152.706Z" fill="white"/>
</g>
<g opacity="0.25">
<path d="M169.678 95.142C171.216 96.0922 173.056 96.6027 174.943 96.6027C176.83 96.6027 178.67 96.0922 180.209 95.142C180.209 94.3325 180.209 93.4928 180.209 92.6152H169.686C169.686 93.4928 169.678 94.325 169.678 95.142Z" fill="black"/>
</g>
<path d="M184.103 86.6691C184.103 88.2462 183.565 89.7878 182.558 91.0991C181.551 92.4104 180.119 93.4324 178.445 94.0359C176.77 94.6395 174.927 94.7974 173.149 94.4897C171.371 94.182 169.738 93.4226 168.456 92.3074C167.174 91.1923 166.301 89.7715 165.948 88.2247C165.594 86.678 165.775 85.0747 166.469 83.6177C167.163 82.1606 168.338 80.9153 169.845 80.0391C171.352 79.163 173.124 78.6953 174.937 78.6953C177.368 78.6953 179.699 79.5354 181.418 81.0308C183.137 82.5262 184.103 84.5543 184.103 86.6691Z" fill="#37474F"/>
<g opacity="0.15">
<path d="M172.824 90.7993C171.849 90.4522 170.977 89.9182 170.272 89.2371C169.568 88.5559 169.049 87.7452 168.754 86.8654C168.393 85.6603 168.325 84.4028 168.554 83.1735C168.665 82.5699 168.852 81.9788 169.111 81.4108C169.231 81.123 169.374 80.8424 169.537 80.5711C169.639 80.3642 169.774 80.1707 169.937 79.9961C168.61 80.7507 167.53 81.7923 166.804 83.019C166.079 84.2456 165.731 85.6151 165.797 86.9935C165.862 88.3719 166.338 89.7119 167.178 90.8823C168.017 92.0527 169.192 93.0133 170.586 93.6702C171.981 94.327 173.547 94.6575 175.133 94.6294C176.718 94.6013 178.268 94.2154 179.631 93.5097C180.993 92.8039 182.122 91.8024 182.906 90.6032C183.689 89.404 184.102 88.0482 184.103 86.6687C183.077 89.1955 178.172 92.8419 172.824 90.7993Z" fill="black"/>
</g>
<g opacity="0.15">
<path d="M182.339 86.4721C181.47 88.6055 181.157 85.5113 177.061 83.2417C173.722 81.3958 169.765 81.7816 171.913 80.488C173.652 79.444 176.443 79.4288 179.078 80.6771C181.713 81.9254 183.009 84.8683 182.339 86.4721Z" fill="white"/>
</g>
<path d="M174.294 76.3193C173.088 76.8893 171.906 77.4819 170.746 78.0972C158.111 84.3234 144.597 90.6858 139.954 97.7669C138.185 100.423 136.961 103.325 136.336 106.346C132.945 110.129 129.675 113.911 126.449 117.694C123.997 120.591 121.579 123.481 119.083 126.288L118.909 126.401C118.744 126.485 118.657 126.553 118.683 126.606C118.709 126.659 118.683 126.757 118.509 126.697C118.001 126.304 117.668 125.768 117.57 125.183C117.338 124.426 117.227 123.645 117.24 122.861C117.22 122.039 117.364 121.22 117.666 120.44C117.684 120.391 117.687 120.339 117.675 120.288C117.663 120.238 117.636 120.191 117.596 120.153C117.536 120.101 117.455 120.072 117.37 120.072C117.286 120.072 117.204 120.101 117.144 120.153C116.34 120.816 115.709 121.62 115.292 122.513C114.845 123.417 114.552 124.373 114.422 125.35C114.236 126.533 114.463 127.738 115.074 128.807C115.306 129.158 115.599 129.475 115.944 129.745C114.248 131.546 112.466 133.286 110.666 134.897C108.816 136.583 106.776 138.104 104.578 139.436C102.439 140.828 100.857 141.01 99.8739 140.352C99.2628 139.831 98.8708 139.146 98.7608 138.408C98.547 137.394 98.5177 136.358 98.6738 135.336C98.8259 134.242 99.1175 133.166 99.5434 132.128C99.9561 131.091 100.511 130.1 101.196 129.178C101.822 128.321 102.634 127.578 103.587 126.992C103.978 126.766 104.41 126.599 104.865 126.5C105.189 126.44 105.527 126.469 105.831 126.583C106.146 126.731 106.39 126.972 106.518 127.264C106.729 127.698 106.847 128.162 106.865 128.633C106.924 129.719 106.747 130.805 106.344 131.833C105.981 132.888 105.367 133.865 104.544 134.701C104.173 135.066 103.72 135.362 103.213 135.571C103.03 135.652 102.827 135.694 102.622 135.694C102.416 135.694 102.214 135.652 102.03 135.571L101.952 135.525C101.764 135.431 101.543 135.398 101.33 135.433C101.116 135.468 100.924 135.567 100.787 135.714C100.709 135.794 100.651 135.887 100.617 135.987C100.582 136.087 100.572 136.193 100.587 136.296C100.602 136.4 100.641 136.5 100.702 136.59C100.764 136.68 100.846 136.758 100.943 136.819C101.357 137.106 101.854 137.289 102.378 137.348C102.874 137.403 103.378 137.366 103.857 137.242C104.687 137.005 105.449 136.615 106.092 136.1C107.27 135.139 108.201 133.971 108.822 132.673C109.488 131.387 109.855 129.998 109.9 128.588C109.923 127.818 109.794 127.05 109.518 126.318C109.357 125.892 109.122 125.489 108.822 125.123C108.496 124.721 108.083 124.379 107.605 124.117C106.665 123.593 105.549 123.363 104.439 123.466C103.477 123.555 102.545 123.812 101.7 124.223C100.224 124.965 98.9368 125.961 97.9173 127.15C96.9522 128.268 96.1436 129.482 95.5085 130.767C94.8646 132.042 94.3891 133.377 94.091 134.746C93.7566 136.185 93.689 137.661 93.891 139.119C94.0151 139.931 94.2637 140.725 94.6302 141.479C95.0525 142.339 95.6776 143.112 96.465 143.749C97.2876 144.38 98.2579 144.848 99.3089 145.121C100.36 145.394 101.467 145.465 102.552 145.33C103.516 145.221 104.456 144.992 105.344 144.649C105.761 144.499 106.167 144.327 106.561 144.134L107.579 143.612C112.953 140.768 117.144 136.985 121.031 133.203C122.428 131.821 123.797 130.429 125.136 129.027C125.68 128.668 126.158 128.24 126.553 127.756C126.906 127.358 127.22 126.935 127.492 126.492C132.71 120.917 137.623 115.258 142.832 109.849C150.093 102.344 157.737 95.1796 166.485 89.377C169 87.7095 171.612 86.1565 174.312 84.7244V76.3193H174.294ZM139.215 103.168C139.397 102.102 140.128 100.142 142.693 97.2827C146.641 92.9024 152.615 89.3694 156.38 87.4479C150.175 92.2717 144.434 97.5295 139.215 103.168Z" fill="#455A64"/>
<path d="M253.575 53.9186C253.066 53.0956 252.346 52.3861 251.47 51.8457C250.455 51.2285 249.227 50.9346 247.992 51.0136C246.955 51.0941 245.951 51.3731 245.053 51.8306C244.267 52.2199 243.539 52.6925 242.887 53.2378C241.717 54.2588 240.742 55.4362 240 56.7254C239.236 58.0009 238.724 59.3794 238.487 60.803C238.184 62.3382 238.408 63.9171 239.131 65.3422C239.374 65.8094 239.726 66.2275 240.164 66.57C240.603 66.9125 241.119 67.172 241.679 67.3319C242.279 67.4804 242.912 67.4985 243.522 67.3848C244.027 67.2676 244.508 67.0839 244.948 66.8401C245.697 66.4209 246.329 65.8629 246.8 65.206C247.242 64.609 247.565 63.9518 247.757 63.2617C247.798 63.1157 247.782 62.9619 247.712 62.8244C247.642 62.6869 247.522 62.5735 247.37 62.5017C247.218 62.43 247.043 62.4041 246.872 62.428C246.702 62.4519 246.545 62.5243 246.427 62.6338C245.627 63.4551 244.637 64.1203 243.522 64.5857C243.34 64.6529 243.146 64.6914 242.948 64.6992C242.852 64.7012 242.756 64.683 242.67 64.6462C242.482 64.492 242.331 64.3068 242.226 64.1015C241.909 63.2051 241.879 62.2503 242.139 61.3402C242.393 60.3007 242.845 59.3058 243.479 58.3973C244.085 57.4811 244.857 56.656 245.766 55.9537C246.42 55.374 247.282 55.0057 248.209 54.9097C248.412 54.9077 248.607 54.9726 248.757 55.0913C249.025 55.302 249.238 55.5598 249.383 55.8478C249.769 56.6987 249.935 57.6129 249.87 58.5259C249.734 60.6534 249.035 62.7247 247.827 64.5781C246.674 66.4675 245.084 68.1289 243.157 69.4577C242.716 69.7442 242.247 69.9972 241.757 70.2142C241.192 70.4715 240.626 70.7135 240.018 70.9178C238.878 71.3277 237.7 71.6492 236.496 71.8786C235.349 72.085 234.186 72.214 233.017 72.2644C233.248 71.7714 233.443 71.266 233.6 70.7514C233.865 69.8007 233.991 68.8245 233.974 67.8463C233.96 66.8874 233.778 65.9359 233.435 65.0245C233.258 64.5571 233.006 64.1139 232.687 63.7081C232.526 63.4697 232.306 63.2657 232.043 63.1112C231.779 62.9567 231.479 62.8556 231.165 62.8154C231.112 62.8109 231.059 62.8191 231.012 62.8391C230.964 62.8591 230.924 62.8902 230.896 62.9289C230.871 62.9568 230.853 62.9888 230.843 63.0229C230.833 63.0571 230.831 63.0926 230.838 63.1274C230.844 63.1621 230.859 63.1953 230.881 63.2249C230.903 63.2546 230.931 63.28 230.965 63.2996L231.043 63.3525C231.175 63.4592 231.281 63.5879 231.354 63.7309C231.427 63.8739 231.466 64.0282 231.469 64.1847C231.526 64.5462 231.526 64.9127 231.469 65.2741C231.379 66.0199 231.169 66.7509 230.843 67.4453C230.557 68.127 230.174 68.775 229.704 69.3745C229.292 69.9461 228.795 70.4676 228.226 70.9254C227.673 71.3331 227.031 71.6393 226.339 71.8256C226.235 71.8589 226.134 71.8967 226.034 71.9391C221.756 71.4474 217.251 70.5698 212.53 70.0402C212.295 67.6572 211.399 64.6538 208.582 63.1937C203.521 60.5912 187.963 69.3669 174.485 76.153L174.232 76.2665V84.7471C180.676 81.1571 187.824 78.6309 195.32 77.2953C200.584 76.486 205.954 76.3281 211.269 76.8263C216.73 77.2499 222.365 78.2561 228.582 78.415C231.806 78.5149 235.028 78.1884 238.139 77.4466C239.706 77.0583 241.23 76.552 242.696 75.9336C243.418 75.6234 244.131 75.283 244.809 74.9274C245.567 74.5366 246.285 74.0912 246.957 73.5959C249.419 71.7048 251.398 69.3853 252.766 66.7872C254.201 64.217 254.924 61.3904 254.879 58.5335C254.872 56.9269 254.425 55.345 253.575 53.9186ZM209.39 68.8601C204.912 68.2775 194.807 68.8601 189.103 71.0918L188.885 71.1448C190.329 70.3353 200.19 64.9337 205.886 65.5465C209.956 65.9777 209.39 68.8601 209.39 68.8601Z" fill="#455A64"/>
<path d="M174.294 52.02C168.902 54.7284 164.528 61.9986 164.528 68.2778C164.528 74.557 168.876 79.6257 174.294 76.9249C179.712 74.2241 184.086 64.7146 184.086 58.4581C184.086 52.2016 179.712 49.3041 174.294 52.02ZM174.294 55.1899C178.198 53.2305 181.346 55.3034 181.346 59.8274C181.338 60.8673 181.21 61.9039 180.964 62.9216C180.512 59.3432 177.685 57.868 174.294 59.5702C170.902 61.2724 168.12 65.5694 167.641 69.5866C167.393 68.7101 167.265 67.8112 167.259 66.9085C167.259 62.3845 170.415 57.1417 174.294 55.1899Z" fill="#455A64"/>
<path d="M174.319 63.5039L177.398 66.1366L174.285 72.204L171.215 69.2081L174.319 63.5039Z" fill="#FF7C44"/>
<path opacity="0.6" d="M175.572 68.3684L174.589 70.1462L174.459 65.2666L175.598 66.303C175.812 66.6164 175.922 66.9747 175.917 67.3389C175.913 67.7031 175.793 68.0592 175.572 68.3684Z" fill="white"/>
</svg>
