<svg id="entertainment" width="23" height="24" viewBox="0 0 23 24" fill="none" xmlns="http://www.w3.org/2000/svg">
<path d="M20.9643 4.79107L10.4643 0.973734C10.1119 0.844893 9.73356 0.803045 9.36148 0.851746C8.9894 
0.900448 8.63458 1.03826 8.32717 1.25347C8.01976 1.46868 7.76885 1.75492 7.59577 2.08788C7.42269 2.42083 
7.33255 2.79065 7.33301 3.1659V10.3164C6.62702 9.89577 5.82146 9.67142 4.99967 9.66657C2.42601 9.66657 0.333008 
11.7596 0.333008 14.3332C0.333008 16.9069 2.42601 18.9999 4.99967 18.9999C7.57334 18.9999 9.66634 16.9069 9.66634 
14.3332V3.1659L20.1663 6.98323V14.9819C19.46 14.5621 18.6546 14.3382 17.833 14.3332C15.2593 14.3332 13.1663 16.4262 
13.1663 18.9999C13.1663 21.5736 15.2593 23.6666 17.833 23.6666C20.4067 23.6666 22.4997 21.5736 22.4997 18.9999V6.98323C22.4997 
6.00557 21.8825 5.12357 20.9643 4.79107ZM4.99967 16.6666C3.71284 16.6666 2.66634 15.6201 2.66634 14.3332C2.66634 13.0464 3.71284 
11.9999 4.99967 11.9999C6.28651 11.9999 7.33301 13.0464 7.33301 14.3332C7.33301 15.6201 6.28651 16.6666 4.99967 16.6666ZM17.833 21.3332C16.5462 21.3332 15.4997 20.2867 15.4997 18.9999C15.4997 17.7131 16.5462 16.6666 17.833 16.6666C19.1198 16.6666 20.1663 17.7131 20.1663 18.9999C20.1663 20.2867 19.1198 21.3332 17.833 21.3332Z" fill="currentColor" fill-opacity="0.7"/>
</svg>
