<svg width="22" height="26" viewBox="0 0 22 26" fill="none" xmlns="http://www.w3.org/2000/svg">
<path d="M4 10.2192V1.625C4 1.39294 4.09219 1.17038 4.25628 1.00628C4.42038 0.842187 4.64294 0.75 
4.875 0.75C5.10706 0.75 5.32962 0.842187 5.49372 1.00628C5.65781 1.17038 5.75 1.39294 5.75 1.625V10.2192C6.26201 
10.0382 6.70528 9.70286 7.0187 9.25936C7.33213 8.81586 7.50028 8.28607 7.5 7.743V1.625C7.5 1.39294 7.59219 1.17038 
7.75628 1.00628C7.92038 0.842187 8.14294 0.75 8.375 0.75C8.60706 0.75 8.82962 0.842187 8.99372 1.00628C9.15781 1.17038 
9.25 1.39294 9.25 1.625V7.743C9.25021 8.75157 8.90194 9.72924 8.26414 10.5105C7.62635 11.2918 6.73819 11.8288 5.75 
12.0305V24.375C5.75 24.6071 5.65781 24.8296 5.49372 24.9937C5.32962 25.1578 5.10706 25.25 4.875 25.25C4.64294 25.25 4.42038 
25.1578 4.25628 24.9937C4.09219 24.8296 4 24.6071 4 24.375V12.0305C3.01181 11.8288 2.12365 11.2918 1.48586 10.5105C0.84806 9.72924 
0.499794 8.75157 0.5 7.743V1.625C0.5 1.39294 0.592187 1.17038 0.756282 1.00628C0.920376 0.842187 1.14294 0.75 1.375 0.75C1.60706 
0.75 1.82962 0.842187 1.99372 1.00628C2.15781 1.17038 2.25 1.39294 2.25 1.625V7.743C2.24972 8.28607 2.41787 8.81586 2.7313 9.25936C3.04472 
9.70286 3.48799 10.0382 4 10.2192ZM15.375 14.6537C12.8918 14.0972 11 11.2185 11 7.75C11 3.8825 13.3503 0.75 16.25 0.75C19.1497 0.75 21.5 3.8825 
21.5 7.75C21.5 11.2185 19.6082 14.0972 17.125 14.6537V24.375C17.125 24.6071 17.0328 24.8296 16.8687 24.9937C16.7046 25.1578 16.4821 25.25 16.25 25.25C16.0179 25.25 15.7954 25.1578 15.6313 24.9937C15.4672 24.8296 15.375 24.6071 15.375 24.375V14.6537ZM16.25 13C18.056 13 19.75 10.7425 19.75 7.75C19.75 4.7575 18.056 2.5 16.25 2.5C14.444 2.5 12.75 4.7575 12.75 7.75C12.75 10.7425 14.444 13 16.25 13Z" fill="#262322" fill-opacity="0.7"/>
</svg>
