<svg id="laundry-icon" width="28" height="24" viewBox="0 0 28 24" fill="none" xmlns="http://www.w3.org/2000/svg">
<path d="M6.28308 14.6333C6.69122 14.4556 7.11009 14.3164 7.5397 14.216C7.96931 14.1164 8.40967 
14.0444 8.86076 14V6.1L4.83314 8.4L3.51208 6.06667L8.47411 3.1C8.98964 4.18889 9.74705 5.05556 
10.7463 5.7C11.7447 6.34444 12.8347 6.66667 14.0161 6.66667C15.1975 6.66667 16.2879 6.34444 
17.2872 5.7C18.2856 5.05556 19.0426 4.18889 19.5581 3.1L24.4879 6.06667L23.1991 8.4L19.1715 
6.1V19.2C19.2574 19.1556 19.354 19.1 19.4614 19.0333C19.5689 18.9667 19.6548 18.9111 19.7192 
18.8667L21.7491 17.0333V10.6333L24.1657 12L28 5.1L19.5259 0H17.8826C17.5389 1.06667 17.1308 2 
16.6582 2.8C16.1857 3.6 15.3049 4 14.0161 4C12.7273 4 11.8466 3.6 11.374 2.8C10.9014 2 10.4933 
1.06667 10.1496 0H8.50633L0 5.06667L3.86651 12L6.28308 10.6333V14.6333ZM4.54315 21.8333L2.86766 
19.8L5.67089 17.3333C6.16494 16.8889 6.72902 16.5502 7.36313 16.3173C7.99638 16.0836 8.65669 
15.9667 9.34407 15.9667C10.0315 15.9667 10.6866 16.0836 11.3096 16.3173C11.9325 16.5502 12.491 
16.8889 12.985 17.3333L16.7227 20.6333C16.9804 20.8556 17.2863 21.028 17.6403 21.1507C17.9952 21.2724 
18.3552 21.3333 18.7204 21.3333C19.107 21.3333 19.467 21.2778 19.8004 21.1667C20.1329 21.0556 20.4281 20.8778 20.6858 20.6333L23.4891 18.1333L25.1646 20.2L22.3613 22.6667C21.8673 23.1111 21.3088 23.4444 20.6858 23.6667C20.0629 23.8889 19.4077 24 18.7204 24C18.033 24 17.3727 23.8889 16.7394 23.6667C16.1053 23.4444 15.5412 23.1111 15.0472 22.6667L11.3096 19.3667C11.0518 19.1444 10.7566 18.972 10.4241 18.8493C10.0907 18.7276 9.73072 18.6667 9.34407 18.6667C8.9789 18.6667 8.61889 18.7276 8.26403 18.8493C7.91003 18.972 7.60414 19.1444 7.34637 19.3667L4.54315 21.8333Z" fill="currentColor" fill-opacity="0.7"/>
</svg>
