<svg width="24" height="24" viewBox="0 0 24 24" fill="none" xmlns="http://www.w3.org/2000/svg">
<g opacity="0.6">
<path d="M22.0827 11.3953C21.2588 9.65954 20.2783 8.24391 19.1413 7.14844L17.9488 8.34094C18.9212 9.27024 19.7683 10.4859 20.5007 12C18.5507 16.0359 15.7827 17.9531 11.9999 17.9531C10.8644 17.9531 9.81856 17.7783 8.86231 17.4286L7.5702 18.7207C8.89833 19.334 10.3749 19.6406 11.9999 19.6406C16.5046 19.6406 19.8655 17.2945 22.0827 12.6023C22.1718 12.4136 22.2181 12.2075 22.2181 11.9988C22.2181 11.7901 22.1718 11.584 22.0827 11.3953V11.3953ZM20.5928 3.88032L19.5936 2.88C19.5762 2.86257 19.5555 2.84874 19.5328 2.8393C19.51 2.82987 19.4856 2.82501 19.461 2.82501C19.4363 2.82501 19.4119 2.82987 19.3892 2.8393C19.3664 2.84874 19.3457 2.86257 19.3283 2.88L16.765 5.44219C15.3517 4.72032 13.7633 4.35938 11.9999 4.35938C7.4952 4.35938 4.13427 6.70547 1.91708 11.3977C1.82796 11.5864 1.78174 11.7925 1.78174 12.0012C1.78174 12.2099 1.82796 12.416 1.91708 12.6047C2.80286 14.4703 3.86927 15.9657 5.1163 17.0909L2.63614 19.5703C2.601 19.6055 2.58127 19.6531 2.58127 19.7029C2.58127 19.7526 2.601 19.8002 2.63614 19.8354L3.63669 20.8359C3.67185 20.8711 3.71952 20.8908 3.76923 20.8908C3.81893 20.8908 3.86661 20.8711 3.90177 20.8359L20.5928 4.14563C20.6102 4.12821 20.624 4.10754 20.6335 4.08477C20.6429 4.06201 20.6478 4.03761 20.6478 4.01297C20.6478 3.98833 20.6429 3.96393 20.6335 3.94117C20.624 3.91841 20.6102 3.89773 20.5928 3.88032ZM3.49911 12C5.45145 7.96407 8.21942 6.04688 11.9999 6.04688C13.2782 6.04688 14.4404 6.26625 15.4949 6.71227L13.8472 8.35993C13.0669 7.94359 12.1735 7.78907 11.2987 7.91917C10.4238 8.04927 9.61401 8.4571 8.98862 9.08248C8.36324 9.70787 7.95541 10.5177 7.82531 11.3925C7.69521 12.2673 7.84973 13.1608 8.26606 13.9411L6.31091 15.8963C5.2288 14.9412 4.29599 13.6472 3.49911 12ZM9.28114 12C9.28155 11.5867 9.37945 11.1794 9.56687 10.811C9.75429 10.4427 10.026 10.1237 10.3598 9.8801C10.6937 9.63648 11.0803 9.47504 11.4882 9.4089C11.8962 9.34276 12.314 9.37379 12.7077 9.49946L9.40559 12.8016C9.32283 12.5424 9.28084 12.272 9.28114 12V12Z" fill="#262322"/>
<path d="M11.9062 14.625C11.8251 14.625 11.7452 14.6212 11.6659 14.614L10.428 15.8519C11.1726 16.1371 11.9838 16.2005 12.7636 16.0344C13.5435 15.8683 14.2585 15.4799 14.8223 14.9161C15.3861 14.3523 15.7745 13.6373 15.9406 12.8575C16.1067 12.0776 16.0433 11.2664 15.7581 10.5218L14.5202 11.7598C14.5274 11.839 14.5312 11.9189 14.5312 12C14.5314 12.3448 14.4636 12.6862 14.3317 13.0048C14.1999 13.3233 14.0065 13.6128 13.7627 13.8566C13.519 14.1004 13.2295 14.2937 12.9109 14.4256C12.5924 14.5574 12.251 14.6252 11.9062 14.625V14.625Z" fill="#262322"/>
</g>
</svg>
