<svg width="22" height="21" viewBox="0 0 22 21" fill="none" xmlns="http://www.w3.org/2000/svg">
<g clip-path="url(#clip0_468_434)">
<path d="M20.341 21.0001C20.981 21.0001 21.5 20.4812 21.5 19.8411V1.15902C21.5 0.518848 20.981 0 20.341 0H1.65902C1.01877 0 0.5 0.518848 0.5 1.15902V19.8411C0.5 20.4812 1.01877 21.0001 1.65902 21.0001H20.341Z" fill="#395185"/>
<path d="M14.9895 21V12.8676H17.7193L18.1279 9.69836H14.9895V7.67482C14.9895 6.75722 15.2444 6.13189 16.5602 6.13189L18.2385 6.13115V3.29656C17.9481 3.25793 16.9519 3.17163 15.793 3.17163C13.3732 3.17163 11.7167 4.6486 11.7167 7.36105V9.69836H8.97998V12.8676H11.7167V21H14.9895Z" fill="white"/>
</g>
<defs>
<clipPath id="clip0_468_434">
<rect width="21" height="21" fill="white" transform="translate(0.5)"/>
</clipPath>
</defs>
</svg>
