<svg width="24" height="24" viewBox="0 0 24 24" fill="none" xmlns="http://www.w3.org/2000/svg">
<g opacity="0.6">
<path d="M22.0827 11.3953C21.2588 9.65947 20.2783 8.24385 19.1413 7.14838L17.9488 8.34088C18.9212 9.27018 19.7683 10.4859 20.5007 11.9999C18.5507 16.0359 15.7827 17.9531 11.9999 17.9531C10.8644 17.9531 9.81856 17.7782 8.86231 17.4285L7.5702 18.7206C8.89833 19.3339 10.3749 19.6406 11.9999 19.6406C16.5046 19.6406 19.8655 17.2945 22.0827 12.6023C22.1718 12.4136 22.2181 12.2075 22.2181 11.9988C22.2181 11.7901 22.1718 11.584 22.0827 11.3953ZM20.5928 3.88025L19.5936 2.87994C19.5762 2.86251 19.5555 2.84868 19.5328 2.83924C19.51 2.82981 19.4856 2.82495 19.461 2.82495C19.4363 2.82495 19.4119 2.82981 19.3892 2.83924C19.3664 2.84868 19.3457 2.86251 19.3283 2.87994L16.765 5.44213C15.3517 4.72025 13.7633 4.35932 11.9999 4.35932C7.4952 4.35932 4.13427 6.70541 1.91708 11.3976C1.82796 11.5863 1.78174 11.7924 1.78174 12.0011C1.78174 12.2098 1.82796 12.4159 1.91708 12.6046C2.80286 14.4703 3.86927 15.9656 5.1163 17.0908L2.63614 19.5703C2.601 19.6054 2.58127 19.6531 2.58127 19.7028C2.58127 19.7525 2.601 19.8002 2.63614 19.8353L3.63669 20.8359C3.67185 20.871 3.71952 20.8908 3.76923 20.8908C3.81893 20.8908 3.86661 20.871 3.90177 20.8359L20.5928 4.14557C20.6102 4.12815 20.624 4.10747 20.6335 4.08471C20.6429 4.06195 20.6478 4.03755 20.6478 4.01291C20.6478 3.98827 20.6429 3.96387 20.6335 3.94111C20.624 3.91835 20.6102 3.89767 20.5928 3.88025ZM3.49911 11.9999C5.45145 7.96401 8.21942 6.04682 11.9999 6.04682C13.2782 6.04682 14.4404 6.26619 15.4949 6.71221L13.8472 8.35986C13.0669 7.94353 12.1735 7.78901 11.2987 7.91911C10.4238 8.04921 9.61401 8.45704 8.98862 9.08242C8.36324 9.70781 7.95541 10.5176 7.82531 11.3925C7.69521 12.2673 7.84973 13.1607 8.26606 13.941L6.31091 15.8962C5.2288 14.9411 4.29599 13.6471 3.49911 11.9999ZM9.28114 11.9999C9.28155 11.5867 9.37945 11.1793 9.56687 10.811C9.75429 10.4426 10.026 10.1237 10.3598 9.88004C10.6937 9.63642 11.0803 9.47498 11.4882 9.40884C11.8962 9.3427 12.314 9.37372 12.7077 9.4994L9.40559 12.8015C9.32283 12.5424 9.28084 12.272 9.28114 11.9999Z" fill="#262322"/>
<path d="M11.9064 14.6249C11.8253 14.6249 11.7454 14.6212 11.6662 14.6139L10.4282 15.8519C11.1728 16.137 11.9841 16.2004 12.7639 16.0343C13.5437 15.8683 14.2588 15.4798 14.8225 14.916C15.3863 14.3523 15.7747 13.6372 15.9408 12.8574C16.1069 12.0776 16.0435 11.2663 15.7584 10.5217L14.5204 11.7597C14.5277 11.8389 14.5314 11.9188 14.5314 11.9999C14.5316 12.3447 14.4638 12.6861 14.332 13.0047C14.2001 13.3233 14.0068 13.6127 13.763 13.8565C13.5192 14.1003 13.2298 14.2936 12.9112 14.4255C12.5926 14.5573 12.2512 14.6251 11.9064 14.6249Z" fill="#262322"/>
</g>
</svg>
