<svg width="21" height="21" viewBox="0 0 21 21" fill="none" xmlns="http://www.w3.org/2000/svg">
<path d="M19.0798 8.78631H18.375V8.75H10.5V12.25H15.4451C14.7236 14.2874 12.7851 15.75 10.5 15.75C7.60069 15.75 5.25 13.3993 5.25 10.5C5.25 7.60069 7.60069 5.25 10.5 5.25C11.8383 5.25 13.0559 5.75487 13.9829 6.57956L16.4579 4.10462C14.8951 2.64819 12.8048 1.75 10.5 1.75C5.66781 1.75 1.75 5.66781 1.75 10.5C1.75 15.3322 5.66781 19.25 10.5 19.25C15.3322 19.25 19.25 15.3322 19.25 10.5C19.25 9.91331 19.1896 9.34063 19.0798 8.78631Z" fill="#FFC107"/>
<path d="M2.75879 6.42731L5.6336 8.53563C6.41148 6.60975 8.29535 5.25 10.4999 5.25C11.8382 5.25 13.0558 5.75487 13.9829 6.57956L16.4578 4.10462C14.895 2.64819 12.8047 1.75 10.4999 1.75C7.13904 1.75 4.22441 3.64744 2.75879 6.42731Z" fill="#FF3D00"/>
<path d="M10.5001 19.2501C12.7603 19.2501 14.8139 18.3851 16.3666 16.9786L13.6584 14.6869C12.7504 15.3775 11.6409 15.751 10.5001 15.7501C8.22426 15.7501 6.29182 14.2989 5.56382 12.2737L2.71045 14.4721C4.15857 17.3058 7.09945 19.2501 10.5001 19.2501Z" fill="#4CAF50"/>
<path d="M19.0798 8.78631H18.375V8.75H10.5V12.25H15.4451C15.1 13.2197 14.4783 14.067 13.657 14.6873L13.6583 14.6864L16.3664 16.9781C16.1748 17.1522 19.25 14.875 19.25 10.5C19.25 9.91331 19.1896 9.34063 19.0798 8.78631Z" fill="#1976D2"/>
</svg>
