<svg width="24" height="26" viewBox="0 0 24 26" fill="none" xmlns="http://www.w3.org/2000/svg">
<path d="M23 5H19V2.5C19 1.39688 18.1031 0.5 17 0.5H7C5.89687 0.5 5 1.39688 5 2.5V5H1C0.446875 5 0 5.44688 0 6V7C0 7.1375 0.1125 7.25 0.25 7.25H2.1375L2.90938 23.5938C2.95938 24.6594 3.84063 25.5 4.90625 25.5H19.0938C20.1625 25.5 21.0406 24.6625 21.0906 23.5938L21.8625 7.25H23.75C23.8875 7.25 24 7.1375 24 7V6C24 5.44688 23.5531 5 23 5ZM7.25 2.75H16.75V5H7.25V2.75ZM18.8531 23.25H5.14688L4.39062 7.25H19.6094L18.8531 23.25Z" fill="#FF7C44"/>
</svg>
