<svg width="342" height="342" viewBox="0 0 342 342" fill="none" xmlns="http://www.w3.org/2000/svg">
<path d="M193.922 65.5957H163.053V104.563H193.922V65.5957Z" fill="#EBEBEB"/>
<path d="M180.824 103.688H176.542V104.727H180.824V103.688Z" fill="#E0E0E0"/>
<path d="M179.475 79.0088L173.791 79.8433L171.671 85.1853L175.235 89.6929L180.919 88.8584L183.039 83.5163L179.475 79.0088Z" fill="#E0E0E0"/>
<path d="M182.138 82.4629L176.454 83.2974L174.327 88.6326L177.89 93.147L183.581 92.3125L185.702 86.9705L182.138 82.4629Z" fill="#FAFAFA"/>
<path d="M181.432 65.0684H177.15V65.9576H181.432V65.0684Z" fill="#E0E0E0"/>
<path d="M232.986 81.375H212.014V126.259H232.986V81.375Z" fill="#F5F5F5"/>
<path d="M259.619 129.398H233.853V172.764H259.619V129.398Z" fill="#F5F5F5"/>
<path d="M262.753 80.6023H287.22V40.7867H288.089V80.6023H310.736V39.9043H262.753V80.6023Z" fill="#F5F5F5"/>
<path d="M232.986 129.398H212.014V172.764H232.986V129.398Z" fill="#F5F5F5"/>
<path d="M310.729 129.398H288.088V172.764H310.729V129.398Z" fill="#F5F5F5"/>
<path d="M259.619 81.375H233.853V126.259H259.619V81.375Z" fill="#F5F5F5"/>
<path d="M310.729 81.375H288.088V126.259H310.729V81.375Z" fill="#F5F5F5"/>
<path d="M232.986 173.544H212.014V212.621H232.986V173.544Z" fill="#F5F5F5"/>
<path d="M232.979 80.6023V40.7867H233.854V80.6023H259.621V39.9043H212.014V80.6023H232.979Z" fill="#F5F5F5"/>
<path d="M259.619 173.544H233.853V212.621H259.619V173.544Z" fill="#F5F5F5"/>
<path d="M310.729 173.544H288.088V212.621H310.729V173.544Z" fill="#F5F5F5"/>
<path d="M287.22 81.375H262.753V126.259H287.22V81.375Z" fill="#F5F5F5"/>
<path d="M287.22 173.544H262.753V212.621H287.22V173.544Z" fill="#F5F5F5"/>
<path d="M287.22 129.398H262.753V172.764H287.22V129.398Z" fill="#F5F5F5"/>
<path d="M70.7678 81.375H49.7964V126.259H70.7678V81.375Z" fill="#F5F5F5"/>
<path d="M97.4035 129.398H71.6372V172.764H97.4035V129.398Z" fill="#F5F5F5"/>
<path d="M100.536 80.6023H125.002V40.7867H125.878V80.6023H148.518V39.9043H100.536V80.6023Z" fill="#F5F5F5"/>
<path d="M70.7678 129.398H49.7964V172.764H70.7678V129.398Z" fill="#F5F5F5"/>
<path d="M148.518 129.398H125.877V172.764H148.518V129.398Z" fill="#F5F5F5"/>
<path d="M97.4035 81.375H71.6372V126.259H97.4035V81.375Z" fill="#F5F5F5"/>
<path d="M148.518 81.375H125.877V126.259H148.518V81.375Z" fill="#F5F5F5"/>
<path d="M70.7678 173.544H49.7964V212.621H70.7678V173.544Z" fill="#F5F5F5"/>
<path d="M70.7678 80.6023V40.7867H71.6365V80.6023H97.4028V39.9043H49.7964V80.6023H70.7678Z" fill="#F5F5F5"/>
<path d="M97.4035 173.544H71.6372V212.621H97.4035V173.544Z" fill="#F5F5F5"/>
<path d="M148.518 173.544H125.877V212.621H148.518V173.544Z" fill="#F5F5F5"/>
<path d="M125.002 81.375H100.536V126.259H125.002V81.375Z" fill="#F5F5F5"/>
<path d="M125.002 173.544H100.536V212.621H125.002V173.544Z" fill="#F5F5F5"/>
<path d="M125.002 129.398H100.536V172.764H125.002V129.398Z" fill="#F5F5F5"/>
<path d="M261.475 281.821V301.924H290.873H323.295V281.821H261.475Z" fill="#EBEBEB"/>
<path d="M258.882 276.199V281.822H325.456V276.199H290.873H258.882Z" fill="#E0E0E0"/>
<path d="M292.172 301.924H323.294V281.822H325.455V276.199H290.872V281.302L292.172 301.924Z" fill="#E0E0E0"/>
<path d="M282.663 285.063H270.125V288.087H282.663V285.063Z" fill="#E0E0E0"/>
<path d="M284.613 291.869H268.512V298.258H284.613V291.869Z" fill="#F5F5F5"/>
<path d="M276.748 254.004L276.659 246.452L303.137 248.716L303.964 256.192L276.748 254.004Z" fill="#EBEBEB"/>
<path d="M282.464 249.883L282.348 251.239L298.909 252.656L299.025 251.3L282.464 249.883Z" fill="#E0E0E0"/>
<path d="M273.594 246.828L273.581 239.27L300.038 241.821L300.708 248.579L273.594 246.828Z" fill="#E0E0E0"/>
<path d="M273.588 240.303L273.574 245.399L299.347 247.3L298.916 242.594L273.588 240.303Z" fill="white"/>
<path d="M297.391 244.557C297.079 244.586 296.766 244.586 296.454 244.557L293.923 244.359C291.782 244.174 288.834 243.9 285.571 243.572C282.309 243.244 279.368 242.922 277.233 242.676L274.71 242.361C274.399 242.34 274.092 242.285 273.793 242.197C274.102 242.169 274.414 242.169 274.723 242.197L277.254 242.396C279.395 242.58 282.35 242.861 285.606 243.189C288.861 243.517 291.816 243.832 293.95 244.085L296.474 244.393C296.785 244.415 297.092 244.47 297.391 244.557Z" fill="#F5F5F5"/>
<path d="M297.335 245.193C297.024 245.227 296.71 245.227 296.398 245.193L293.833 245.07C291.679 244.954 288.697 244.769 285.406 244.537C282.116 244.304 279.134 244.079 276.98 243.901L274.435 243.668C274.121 243.654 273.81 243.608 273.505 243.531C273.816 243.497 274.131 243.497 274.442 243.531L277 243.654C279.162 243.771 282.144 243.962 285.434 244.188C288.724 244.414 291.699 244.646 293.854 244.831L296.405 245.064C296.719 245.079 297.03 245.123 297.335 245.193Z" fill="#F5F5F5"/>
<path d="M277.054 260.973L276.952 253.415L303.436 255.659L304.189 262.403L277.054 260.973Z" fill="#E0E0E0"/>
<path d="M279.97 261.13C279.749 259.903 279.641 258.657 279.648 257.409C279.537 256.166 279.549 254.916 279.683 253.675C279.905 254.902 280.013 256.148 280.004 257.396C280.115 258.639 280.104 259.89 279.97 261.13Z" fill="#F5F5F5"/>
<path d="M280.968 253.764C281.169 254.991 281.256 256.234 281.228 257.478C281.31 258.718 281.278 259.964 281.132 261.199C280.923 259.972 280.836 258.728 280.872 257.485C280.786 256.244 280.818 254.998 280.968 253.764Z" fill="#F5F5F5"/>
<path d="M283.376 257.081C287.993 257.594 293.424 257.881 298.117 258.299L283.376 257.081Z" fill="white"/>
<path d="M298.117 258.298C297.394 258.341 296.668 258.323 295.948 258.244C294.58 258.175 292.768 258.059 290.729 257.909C288.691 257.758 286.851 257.587 285.524 257.423C284.799 257.378 284.08 257.263 283.376 257.081C284.101 257.059 284.825 257.091 285.545 257.177L290.757 257.553C292.809 257.703 294.635 257.854 295.969 257.997C296.692 258.037 297.41 258.138 298.117 258.298Z" fill="#F5F5F5"/>
<path d="M300.043 262.191C299.817 261.078 299.703 259.946 299.701 258.812C299.584 257.675 299.584 256.529 299.701 255.392C299.932 256.503 300.046 257.635 300.043 258.771C300.169 259.907 300.169 261.054 300.043 262.191Z" fill="#F5F5F5"/>
<path d="M301.68 262.273C301.215 260.043 300.986 257.771 300.996 255.494C301.286 256.597 301.458 257.727 301.509 258.866C301.683 259.993 301.74 261.134 301.68 262.273Z" fill="#F5F5F5"/>
<path d="M287.281 258.777C290.195 258.976 292.418 259.119 294.743 259.174L287.281 258.777Z" fill="white"/>
<path d="M294.804 259.174C292.31 259.279 289.811 259.146 287.342 258.777C288.586 258.656 289.839 258.656 291.083 258.777C292.333 258.793 293.579 258.926 294.804 259.174Z" fill="#F5F5F5"/>
<path d="M278.826 275.734L278.334 268.189L304.894 269.031L306.002 275.727L278.826 275.734Z" fill="#EBEBEB"/>
<path d="M279.881 274.783L305.729 274.413L305.011 269.721L279.395 269.242L279.881 274.783Z" fill="white"/>
<path d="M279.551 268.339L279.305 260.781L305.83 262.512L306.713 269.242L279.551 268.339Z" fill="#F5F5F5"/>
<path d="M285.164 264.081L285.076 265.439L301.662 266.518L301.751 265.16L285.164 264.081Z" fill="#E0E0E0"/>
<path d="M305.277 271.651C304.941 271.707 304.6 271.732 304.258 271.726L301.522 271.794C299.19 271.835 295.961 271.87 292.398 271.883C288.834 271.897 285.613 271.883 283.273 271.883L280.537 271.835C280.199 271.845 279.86 271.825 279.525 271.774C279.859 271.717 280.198 271.691 280.537 271.699L283.273 271.63C285.606 271.589 288.834 271.562 292.398 271.541C295.961 271.521 299.19 271.541 301.522 271.541L304.293 271.589C304.622 271.581 304.952 271.602 305.277 271.651Z" fill="#EBEBEB"/>
<path d="M305.579 273.114C305.243 273.168 304.901 273.187 304.56 273.169H301.77C299.423 273.169 296.174 273.169 292.583 273.093C288.992 273.018 285.743 272.977 283.397 272.916L280.613 272.82C280.272 272.827 279.93 272.799 279.594 272.738C279.932 272.688 280.273 272.669 280.613 272.683H283.397C285.75 272.683 288.999 272.683 292.59 272.758C296.181 272.834 299.43 272.875 301.776 272.936L304.56 273.032C304.902 273.034 305.242 273.061 305.579 273.114Z" fill="#EBEBEB"/>
<path d="M318.178 301.925C318.178 302.028 252.281 302.103 171.008 302.103C89.7354 302.103 23.8252 302.028 23.8252 301.925C23.8252 301.822 89.7081 301.747 171.008 301.747C252.309 301.747 318.178 301.829 318.178 301.925Z" fill="#263238"/>
<path d="M46.512 216.999C42.8937 217.58 41.2726 222.026 41.5872 225.679C41.9019 229.332 43.4067 232.902 43.0031 236.548C42.497 241.172 38.9949 245.084 38.5913 249.722C38.1125 255.194 42.0113 260.043 43.1331 265.413C43.694 268.025 43.6187 270.782 44.59 273.272C45.4183 275.39 46.9554 277.155 48.9393 278.266C50.9232 279.378 53.2311 279.767 55.4699 279.368C57.7086 278.969 59.7397 277.805 61.2168 276.076C62.694 274.347 63.526 272.16 63.571 269.886C63.6462 265.686 61.0607 261.726 61.3754 257.54C61.6079 254.441 63.4274 251.507 63.0306 248.429C62.5655 244.763 59.1729 242.163 57.9759 238.668C56.7789 235.173 57.928 231.322 57.5108 227.649C56.772 221.062 53.099 216.466 46.512 216.999Z" fill="#FF7C44"/>
<path d="M28.0042 248.894C27.3612 254.995 30.0972 262.177 33.2299 267.444C36.4133 272.751 41.2052 276.905 46.9099 279.304C47.5461 279.571 48.3395 279.79 48.8799 279.359C49.0698 279.148 49.2127 278.9 49.2988 278.63C49.3849 278.36 49.4123 278.074 49.3792 277.793C49.4205 271.313 47.3615 264.995 43.5106 259.784C39.6596 254.572 34.224 250.749 28.0179 248.887" fill="#FF7C44"/>
<g opacity="0.1">
<path d="M28.0037 248.894C27.3607 254.995 30.0967 262.177 33.2294 267.444C36.4128 272.751 41.2047 276.905 46.9094 279.304C47.5456 279.571 48.339 279.79 48.8794 279.359C49.0694 279.148 49.2122 278.9 49.2983 278.63C49.3844 278.36 49.4118 278.074 49.3787 277.793C49.4201 271.313 47.3611 264.995 43.5101 259.784C39.6591 254.572 34.2235 250.749 28.0174 248.887" fill="black"/>
</g>
<path d="M54.5977 292.068C54.5244 291.964 54.4647 291.852 54.4199 291.733C54.3104 291.466 54.16 291.138 53.989 290.734C53.6196 289.859 53.0724 288.607 52.3747 287.061C51.0067 283.983 48.9137 279.79 46.3145 275.33C44.0839 271.532 41.664 267.847 39.0641 264.291C38.0654 262.923 37.2378 261.835 36.6632 261.09L35.9792 260.214C35.8288 260.016 35.7535 259.906 35.7672 259.899C35.8636 259.983 35.9528 260.075 36.034 260.173L36.718 261.001C37.3336 261.726 38.1886 262.8 39.2146 264.147C41.88 267.67 44.3353 271.347 46.5676 275.159C48.7934 278.973 50.7919 282.916 52.5526 286.965C53.2366 288.518 53.7359 289.79 54.0642 290.679L54.4404 291.705C54.5044 291.821 54.5571 291.942 54.5977 292.068Z" fill="#263238"/>
<path d="M50.6649 233.88C50.7032 234.074 50.726 234.271 50.7333 234.468C50.7607 234.883 50.8017 235.444 50.8564 236.151C50.9522 237.642 51.089 239.749 51.2532 242.307C51.5815 247.533 52.0466 254.742 52.6212 262.71C53.1957 270.679 53.7361 277.882 54.1396 283.101C54.338 285.686 54.4953 287.786 54.6116 289.257C54.6595 289.941 54.6937 290.522 54.7279 290.932C54.7446 291.128 54.7446 291.325 54.7279 291.521C54.6826 291.329 54.6529 291.135 54.639 290.939C54.5979 290.529 54.5364 289.968 54.4611 289.263C54.3243 287.772 54.126 285.672 53.8797 283.107C53.4146 277.895 52.8195 270.686 52.2586 262.717C51.6978 254.749 51.301 247.608 51.0069 242.348C50.8906 239.755 50.788 237.649 50.7196 236.158C50.7196 235.474 50.6786 234.885 50.6649 234.475C50.6514 234.277 50.6514 234.078 50.6649 233.88Z" fill="#263238"/>
<path d="M45.0498 283.367H60.3372V294.592C60.3372 296.536 59.5647 298.401 58.1896 299.776C56.8145 301.152 54.9494 301.924 53.0047 301.924C51.1262 301.925 49.3188 301.206 47.9548 299.914C46.5907 298.623 45.7738 296.857 45.6722 294.982L45.0498 283.367Z" fill="#455A64"/>
<path d="M244.132 191.034C243.281 190.405 242.232 190.104 241.177 190.186C241.177 189.612 241.177 189.263 241.177 189.263H225.035C225.035 189.263 224.529 199.913 232.682 200.289C236.335 200.46 238.421 198.825 239.618 196.766C240.219 196.909 240.833 196.984 241.451 196.992C242.352 197.032 243.242 196.78 243.989 196.274C244.4 195.952 244.726 195.534 244.938 195.057C245.15 194.58 245.242 194.059 245.206 193.538C245.229 193.066 245.144 192.596 244.958 192.162C244.772 191.729 244.489 191.343 244.132 191.034ZM243.024 194.995C242.34 195.508 241.102 195.432 240.288 195.289C240.694 194.156 240.959 192.977 241.075 191.78C241.782 191.698 242.495 191.865 243.093 192.252C243.268 192.414 243.403 192.614 243.488 192.837C243.574 193.06 243.607 193.3 243.585 193.538C243.617 193.808 243.582 194.082 243.485 194.335C243.387 194.589 243.229 194.816 243.024 194.995Z" fill="#FF7C44"/>
<path d="M236.437 188.292C236.518 188.172 236.565 188.032 236.574 187.888C236.549 187.682 236.474 187.486 236.355 187.316C236.235 187.147 236.076 187.009 235.89 186.917C235.618 186.785 235.331 186.686 235.035 186.623C234.662 186.541 234.31 186.383 234.002 186.157C233.832 186.009 233.696 185.825 233.605 185.618C233.514 185.411 233.47 185.186 233.476 184.96C233.477 184.462 233.616 183.975 233.879 183.551C234.433 182.655 235.432 182.088 236.136 181.198C236.491 180.712 236.727 180.15 236.828 179.557C236.929 178.963 236.891 178.355 236.718 177.778C236.548 177.152 236.22 176.58 235.767 176.116C235.253 175.664 234.671 175.295 234.043 175.022C233.342 174.733 232.717 174.286 232.217 173.716C231.978 173.396 231.815 173.026 231.738 172.635C231.647 172.223 231.702 171.792 231.895 171.417C232.003 171.224 232.155 171.06 232.34 170.938L232.525 171.246C231.939 171.611 231.476 172.145 231.199 172.777C230.922 173.41 230.843 174.111 230.972 174.789C231.083 175.433 231.4 176.023 231.875 176.472C232.409 176.881 232.881 177.365 233.277 177.908C233.445 178.214 233.525 178.559 233.51 178.907C233.499 179.252 233.408 179.589 233.243 179.892C232.941 180.428 232.514 180.884 231.998 181.219C231.006 181.848 229.987 182.163 229.228 182.737C228.885 182.982 228.599 183.299 228.39 183.665C228.181 184.031 228.054 184.438 228.017 184.858C227.953 185.498 228.064 186.143 228.339 186.725C228.589 187.215 228.947 187.643 229.385 187.977L229.283 187.929C229.189 187.876 229.1 187.817 229.016 187.751C228.681 187.493 228.408 187.163 228.216 186.787C227.906 186.186 227.771 185.511 227.826 184.837C227.855 184.413 227.969 183.999 228.161 183.62C228.383 183.197 228.696 182.828 229.077 182.539C229.864 181.924 230.911 181.582 231.813 180.98C232.282 180.663 232.671 180.242 232.949 179.748C233.092 179.498 233.167 179.215 233.167 178.928C233.167 178.64 233.092 178.357 232.949 178.107C232.557 177.591 232.096 177.131 231.581 176.739C231.051 176.239 230.702 175.577 230.589 174.858C230.447 174.108 230.536 173.333 230.844 172.634C231.151 171.936 231.664 171.347 232.313 170.945L232.491 171.253C232.356 171.343 232.244 171.462 232.162 171.602C232.037 171.92 231.999 172.266 232.052 172.604C232.104 172.942 232.247 173.259 232.463 173.524C232.932 174.047 233.511 174.458 234.16 174.728C234.82 175.016 235.429 175.409 235.965 175.891C236.457 176.397 236.811 177.021 236.991 177.703C237.169 178.328 237.199 178.985 237.08 179.623C236.962 180.262 236.697 180.864 236.307 181.383C235.534 182.32 234.549 182.867 234.036 183.681C233.523 184.495 233.476 185.521 234.071 186.007C234.666 186.493 235.439 186.479 235.904 186.794C236.103 186.901 236.271 187.058 236.391 187.25C236.511 187.442 236.579 187.662 236.588 187.888C236.581 188.004 236.541 188.116 236.471 188.209C236.471 188.271 236.444 188.292 236.437 188.292Z" fill="#263238"/>
<path d="M135.814 103.845H57.1063C55.8861 103.845 54.897 104.834 54.897 106.054V124.939C54.897 126.159 55.8861 127.149 57.1063 127.149H135.814C137.034 127.149 138.023 126.159 138.023 124.939V106.054C138.023 104.834 137.034 103.845 135.814 103.845Z" fill="#455A64"/>
<path d="M72.4215 119.385C71.7945 120.165 70.9504 120.742 69.9957 121.042C69.0411 121.343 68.0188 121.353 67.0581 121.073C66.0974 120.792 65.2413 120.234 64.5982 119.467C63.955 118.7 63.5536 117.76 63.4446 116.765C63.3357 115.77 63.5241 114.765 63.9861 113.877C64.4481 112.99 65.1629 112.259 66.0401 111.777C66.9174 111.295 67.9178 111.085 68.9148 111.171C69.9118 111.258 70.8608 111.638 71.6417 112.264C72.1608 112.68 72.5928 113.195 72.913 113.778C73.2332 114.361 73.4353 115.002 73.5077 115.663C73.5801 116.324 73.5214 116.993 73.3351 117.632C73.1487 118.271 72.8382 118.866 72.4215 119.385Z" fill="white"/>
<path d="M71.3208 114.494C70.4954 115.545 69.5799 116.523 68.5848 117.415C68.3522 117.634 68.1265 117.846 67.9008 118.058L67.7777 118.181L67.6545 118.058C66.8957 117.364 66.2083 116.597 65.6025 115.766C66.433 116.372 67.2006 117.06 67.8939 117.818H67.6477L68.3317 117.134C69.2487 116.168 70.2489 115.285 71.3208 114.494Z" fill="#FF7C44"/>
<path d="M129.918 113.79C129.918 113.886 119.35 113.968 106.313 113.968C93.2758 113.968 82.7148 113.886 82.7148 113.79C82.7148 113.694 93.2758 113.612 106.313 113.612C119.35 113.612 129.918 113.688 129.918 113.79Z" fill="white"/>
<path d="M110.554 118.401C110.554 118.496 104.446 118.578 96.9149 118.578C89.384 118.578 83.2349 118.496 83.2349 118.401C83.2349 118.305 89.343 118.223 96.9149 118.223C104.487 118.223 110.554 118.332 110.554 118.401Z" fill="white"/>
<path d="M135.814 130.5H57.1063C55.8861 130.5 54.897 131.489 54.897 132.709V151.595C54.897 152.815 55.8861 153.804 57.1063 153.804H135.814C137.034 153.804 138.023 152.815 138.023 151.595V132.709C138.023 131.489 137.034 130.5 135.814 130.5Z" fill="#455A64"/>
<path d="M72.4215 146.041C71.7945 146.821 70.9504 147.398 69.9957 147.698C69.0411 147.999 68.0188 148.009 67.0581 147.729C66.0974 147.449 65.2413 146.89 64.5982 146.123C63.955 145.356 63.5536 144.416 63.4446 143.421C63.3357 142.426 63.5241 141.422 63.9861 140.534C64.4481 139.646 65.1629 138.915 66.0401 138.433C66.9174 137.952 67.9178 137.741 68.9148 137.828C69.9118 137.914 70.8608 138.295 71.6417 138.921C72.6885 139.762 73.3587 140.984 73.5049 142.319C73.6511 143.655 73.2614 144.993 72.4215 146.041Z" fill="white"/>
<path d="M71.3208 141.157C70.4962 142.207 69.5807 143.182 68.5848 144.071L67.9008 144.755L67.7777 144.871L67.6545 144.748C66.8957 144.055 66.2083 143.287 65.6025 142.457C66.4315 143.064 67.199 143.752 67.8939 144.509H67.6477L68.3317 143.825C69.2453 142.847 70.2458 141.954 71.3208 141.157Z" fill="#FF7C44"/>
<path d="M129.918 140.445C129.918 140.548 119.35 140.623 106.313 140.623C93.2758 140.623 82.7148 140.548 82.7148 140.445C82.7148 140.343 93.2758 140.268 106.313 140.268C119.35 140.268 129.918 140.35 129.918 140.445Z" fill="white"/>
<path d="M110.554 145.056C110.554 145.158 104.446 145.234 96.9149 145.234C89.384 145.234 83.2349 145.158 83.2349 145.056C83.2349 144.953 89.343 144.878 96.9149 144.878C104.487 144.878 110.554 144.96 110.554 145.056Z" fill="white"/>
<path d="M135.814 157.162H57.1063C55.8861 157.162 54.897 158.151 54.897 159.371V178.257C54.897 179.477 55.8861 180.466 57.1063 180.466H135.814C137.034 180.466 138.023 179.477 138.023 178.257V159.371C138.023 158.151 137.034 157.162 135.814 157.162Z" fill="#455A64"/>
<path d="M72.4215 172.703C71.7945 173.483 70.9504 174.06 69.9957 174.36C69.0411 174.661 68.0188 174.672 67.0581 174.391C66.0974 174.111 65.2413 173.552 64.5982 172.785C63.955 172.018 63.5536 171.078 63.4446 170.083C63.3357 169.088 63.5241 168.084 63.9861 167.196C64.4481 166.308 65.1629 165.577 66.0401 165.095C66.9174 164.614 67.9178 164.403 68.9148 164.49C69.9118 164.576 70.8608 164.957 71.6417 165.583C72.1608 165.999 72.5928 166.513 72.913 167.096C73.2332 167.679 73.4353 168.32 73.5077 168.981C73.5801 169.643 73.5214 170.312 73.3351 170.95C73.1487 171.589 72.8382 172.185 72.4215 172.703Z" fill="white"/>
<path d="M71.3208 167.812C70.4995 168.867 69.5837 169.845 68.5848 170.733L67.9008 171.376L67.7777 171.499L67.6545 171.376C66.8957 170.683 66.2083 169.915 65.6025 169.085C66.433 169.69 67.2006 170.378 67.8939 171.137H67.6477L68.3317 170.453C69.2487 169.487 70.2489 168.603 71.3208 167.812Z" fill="#FF7C44"/>
<path d="M129.918 167.108C129.918 167.203 119.35 167.285 106.313 167.285C93.2758 167.285 82.7148 167.203 82.7148 167.108C82.7148 167.012 93.2758 166.93 106.313 166.93C119.35 166.93 129.918 167.012 129.918 167.108Z" fill="white"/>
<path d="M110.554 171.718C110.554 171.814 104.446 171.896 96.9149 171.896C89.384 171.896 83.2349 171.814 83.2349 171.718C83.2349 171.622 89.343 171.54 96.9149 171.54C104.487 171.54 110.554 171.622 110.554 171.718Z" fill="white"/>
<path d="M185.139 245.406L183.833 301.925H181.343L181.5 245.55L185.139 245.406Z" fill="#263238"/>
<path d="M194.147 244.776L206.268 301.925H209.045L198.956 244.776H194.147Z" fill="#263238"/>
<path d="M171.425 245.405L158.011 301.924H155.234L167.403 245.173L171.425 245.405Z" fill="#263238"/>
<path d="M209.886 183.272C209.886 183.272 225.249 182.396 223.717 200.173C222.185 217.95 221.302 235.981 215.591 242.137C209.88 248.293 152.369 248.505 147.54 243.457C142.711 238.409 156.76 238.628 159.394 238.628C162.027 238.628 178.272 240.16 183.539 226.316C188.806 212.472 187.492 182.396 209.886 183.272Z" fill="#263238"/>
<path d="M210.871 183.312C210.871 183.312 222.616 185.72 221.521 198.012C220.427 210.303 217.349 231.822 211.637 237.307C205.926 242.793 183.593 243.99 171.466 243.238C157.417 242.355 148.552 239.681 148.552 239.681C148.552 239.681 145.987 241.329 146.76 242.417C147.533 243.505 154.387 247.752 187.595 247.041C220.803 246.329 218.498 241.432 219.873 236.097C221.248 230.762 224.148 202.211 223.744 195.939C223.341 189.667 220.181 184.38 210.871 183.312Z" fill="#455A64"/>
<path d="M177.875 131.144C179.723 130.507 181.73 130.496 183.585 131.115C185.439 131.733 187.039 132.945 188.135 134.564C189.619 136.862 189.968 139.748 191.48 142.026C192.554 143.633 194.14 144.817 195.454 146.24C196.767 147.662 197.841 149.543 197.506 151.452C197.191 153.237 195.679 154.824 195.98 156.616C196.268 158.292 198.032 159.386 198.409 161.055C198.812 163.018 196.924 164.851 194.941 165.159C192.957 165.467 190.987 164.701 189.12 163.962C187.253 163.223 185.269 162.485 183.292 162.84C181.001 163.257 179.243 165.056 177.239 166.26C175.126 167.468 172.707 168.034 170.278 167.889C167.848 167.744 165.514 166.896 163.559 165.446C162.054 164.29 160.734 162.498 161.103 160.658C161.445 158.921 163.155 157.717 163.607 156.014C164.332 153.483 162.239 150.898 162.546 148.278C162.971 144.762 167.334 143.155 168.894 139.981C169.653 138.456 169.722 136.677 170.385 135.111C171.049 133.544 172.8 132.149 174.359 132.819" fill="#263238"/>
<path d="M176.396 163.141C176.622 161.889 176.218 156.622 176.218 156.622C176.218 156.622 171.553 156.034 171.348 151.267C171.143 146.499 171.622 135.535 171.622 135.535L180.219 131.431L187.743 139.981L187.887 163.093L176.396 163.141Z" fill="#FFBE9D"/>
<path d="M172.231 143.941C172.233 144.058 172.269 144.171 172.334 144.268C172.4 144.365 172.492 144.44 172.6 144.484C172.708 144.529 172.827 144.54 172.942 144.518C173.056 144.495 173.162 144.439 173.245 144.357C173.328 144.275 173.385 144.17 173.409 144.056C173.433 143.941 173.423 143.823 173.379 143.714C173.336 143.605 173.262 143.512 173.166 143.445C173.07 143.379 172.957 143.342 172.84 143.339C172.68 143.339 172.526 143.402 172.412 143.515C172.298 143.627 172.233 143.781 172.231 143.941Z" fill="#263238"/>
<path d="M171.849 142.874C171.924 142.956 172.375 142.58 173.012 142.552C173.648 142.525 174.126 142.853 174.195 142.765C174.263 142.676 174.154 142.58 173.942 142.429C173.664 142.236 173.331 142.14 172.993 142.156C172.655 142.172 172.332 142.299 172.075 142.518C171.876 142.682 171.815 142.84 171.849 142.874Z" fill="#263238"/>
<path d="M179.209 143.941C179.2 144.024 179.209 144.108 179.234 144.188C179.26 144.267 179.302 144.34 179.358 144.402C179.414 144.464 179.482 144.514 179.558 144.548C179.635 144.582 179.717 144.6 179.801 144.6C179.884 144.6 179.967 144.582 180.043 144.548C180.119 144.514 180.188 144.464 180.243 144.402C180.299 144.34 180.341 144.267 180.367 144.188C180.393 144.108 180.401 144.024 180.392 143.941C180.401 143.858 180.393 143.774 180.367 143.694C180.341 143.615 180.299 143.542 180.243 143.48C180.188 143.418 180.119 143.368 180.043 143.334C179.967 143.3 179.884 143.282 179.801 143.282C179.717 143.282 179.635 143.3 179.558 143.334C179.482 143.368 179.414 143.418 179.358 143.48C179.302 143.542 179.26 143.615 179.234 143.694C179.209 143.774 179.2 143.858 179.209 143.941Z" fill="#263238"/>
<path d="M178.934 142.997C179.009 143.079 179.461 142.703 180.097 142.676C180.733 142.648 181.212 142.977 181.28 142.888C181.349 142.799 181.239 142.703 181.027 142.552C180.751 142.36 180.42 142.264 180.083 142.279C179.745 142.295 179.421 142.42 179.16 142.635C178.968 142.806 178.9 142.956 178.934 142.997Z" fill="#263238"/>
<path d="M176.533 148.497C176.195 148.396 175.845 148.343 175.493 148.339C175.329 148.339 175.172 148.298 175.144 148.182C175.129 148 175.165 147.818 175.247 147.655C175.391 147.231 175.548 146.78 175.705 146.287C176.134 145.137 176.479 143.958 176.738 142.758C176.221 143.863 175.788 145.007 175.445 146.178C175.295 146.657 175.144 147.108 175.001 147.546C174.905 147.761 174.881 148 174.932 148.23C174.954 148.29 174.99 148.344 175.038 148.387C175.086 148.43 175.143 148.461 175.206 148.476C175.297 148.489 175.389 148.489 175.479 148.476C175.828 148.533 176.183 148.54 176.533 148.497Z" fill="#263238"/>
<path d="M176.219 156.636C178.427 156.564 180.566 155.851 182.375 154.584C182.375 154.584 180.925 158.059 176.274 157.778L176.219 156.636Z" fill="#EB996E"/>
<path d="M176.766 150.179C176.805 149.978 176.893 149.789 177.022 149.629C177.151 149.469 177.317 149.344 177.505 149.263C177.635 149.203 177.776 149.173 177.919 149.173C178.062 149.173 178.203 149.203 178.333 149.263C178.458 149.325 178.561 149.423 178.628 149.546C178.695 149.668 178.723 149.808 178.709 149.947C178.67 150.106 178.584 150.25 178.462 150.36C178.34 150.47 178.188 150.541 178.025 150.562C177.707 150.604 177.383 150.581 177.074 150.494C176.987 150.48 176.904 150.45 176.828 150.405C176.791 150.381 176.761 150.348 176.743 150.307C176.725 150.267 176.719 150.223 176.725 150.179" fill="#EB996E"/>
<path d="M178.354 148.477C178.396 148.477 178.471 148.648 178.45 148.955C178.412 149.368 178.225 149.752 177.924 150.036C177.625 150.319 177.233 150.482 176.822 150.494C176.508 150.494 176.33 150.412 176.344 150.371C176.357 150.33 177.089 150.33 177.677 149.776C178.266 149.222 178.252 148.47 178.354 148.477Z" fill="#263238"/>
<path d="M171.232 134.995C171.404 136.376 172.073 137.647 173.114 138.57C174.155 139.493 175.497 140.004 176.889 140.008L175.596 137.163C176.745 138.497 177.935 139.899 179.515 140.665C181.095 141.431 183.154 141.554 184.495 140.405C184.933 141.575 184.926 142.868 185.329 144.044C185.733 145.221 186.697 150.091 187.901 149.899C189.105 149.708 189.837 144.831 190.124 143.743C190.469 142.197 190.447 140.591 190.059 139.055C189.67 137.519 188.926 136.095 187.887 134.899C186.663 133.471 185.124 132.347 183.391 131.616C181.658 130.885 179.778 130.566 177.901 130.686C176.227 130.759 174.613 131.328 173.264 132.32C172.111 133.24 171.307 134.527 170.986 135.966" fill="#263238"/>
<path d="M164.845 156.472C164.732 156.465 164.621 156.439 164.517 156.397C164.213 156.305 163.919 156.181 163.641 156.028C162.596 155.47 161.732 154.625 161.151 153.593C160.701 152.83 160.429 151.976 160.353 151.094C160.277 150.212 160.4 149.325 160.714 148.497C161.084 147.518 161.682 146.641 162.458 145.939C163.29 145.182 164.311 144.664 165.413 144.441C165.924 144.368 166.402 144.142 166.781 143.791C167.1 143.404 167.285 142.924 167.307 142.423C167.39 141.417 166.993 140.439 166.883 139.454C166.764 138.506 166.959 137.545 167.437 136.718C167.858 136.002 168.472 135.419 169.209 135.036C169.893 134.687 170.502 134.461 171.028 134.228C171.49 134.049 171.93 133.82 172.342 133.544C172.678 133.294 172.98 133 173.238 132.669C173.2 132.774 173.147 132.873 173.08 132.963C172.894 133.229 172.662 133.461 172.396 133.647C171.989 133.949 171.548 134.204 171.083 134.406C170.556 134.653 169.934 134.899 169.305 135.248C168.619 135.621 168.052 136.181 167.67 136.862C167.227 137.637 167.054 138.536 167.177 139.42C167.287 140.357 167.704 141.335 167.629 142.457C167.606 143.04 167.389 143.598 167.013 144.044C166.585 144.449 166.043 144.714 165.461 144.803C164.454 145.015 163.516 145.476 162.734 146.144C161.951 146.812 161.348 147.666 160.98 148.627C160.678 149.412 160.553 150.254 160.613 151.094C160.673 151.933 160.918 152.749 161.329 153.483C161.876 154.492 162.684 155.336 163.669 155.925C164.394 156.322 164.845 156.438 164.845 156.472Z" fill="#263238"/>
<path d="M195.808 162.738C195.808 162.738 196.212 162.464 196.916 161.958C197.936 161.283 198.747 160.335 199.255 159.222C199.567 158.45 199.615 157.597 199.392 156.794C199.269 156.36 199.033 155.966 198.708 155.652C198.339 155.328 197.93 155.052 197.491 154.831C196.986 154.56 196.56 154.162 196.255 153.676C195.951 153.19 195.778 152.634 195.753 152.061C195.705 150.823 196.472 149.797 196.745 148.696C196.978 147.589 196.796 146.434 196.232 145.453C195.711 144.519 195.014 143.695 194.18 143.025C192.614 141.712 190.979 140.747 189.85 139.605C188.92 138.755 188.227 137.678 187.839 136.479C187.746 136.152 187.691 135.814 187.675 135.474C187.658 135.356 187.658 135.236 187.675 135.118C187.732 135.565 187.824 136.006 187.949 136.438C188.377 137.588 189.082 138.615 190.001 139.427C191.123 140.501 192.737 141.425 194.365 142.758C195.229 143.451 195.951 144.303 196.492 145.269C197.105 146.324 197.302 147.571 197.046 148.764C196.731 149.961 196 150.946 196.054 152.033C196.071 152.565 196.231 153.082 196.516 153.531C196.801 153.98 197.201 154.344 197.675 154.585C198.136 154.822 198.566 155.116 198.954 155.46C199.307 155.818 199.562 156.261 199.693 156.746C199.918 157.609 199.855 158.521 199.515 159.345C199.227 160.01 198.806 160.608 198.277 161.103C197.88 161.477 197.45 161.813 196.991 162.109C196.622 162.348 196.307 162.519 196.123 162.622C196.023 162.674 195.918 162.713 195.808 162.738Z" fill="#263238"/>
<path d="M171.076 140.699C171.738 140.149 172.203 139.401 172.403 138.565C172.598 137.733 172.702 136.882 172.711 136.027C172.711 135.781 172.711 135.459 172.451 135.398C172.191 135.336 172.027 135.569 171.918 135.781C171.081 137.364 170.786 139.178 171.076 140.945L171.227 140.801" fill="#263238"/>
<path d="M159.139 298.539L159.009 292.383L170.528 292.068L170.808 301.063L170.124 301.131C166.95 301.391 153.968 302.239 151.827 301.651C149.413 301.001 159.139 298.539 159.139 298.539Z" fill="#FF7C44"/>
<g opacity="0.5">
<path d="M166.629 301.097C166.773 300.119 167.275 299.229 168.038 298.6C168.78 297.97 169.733 297.645 170.706 297.691L170.794 300.906L166.629 301.097Z" fill="white"/>
</g>
<g opacity="0.4">
<path d="M154.393 299.914C154.393 299.914 150.973 300.995 151.431 301.549C151.89 302.103 165.023 301.74 170.809 301.07V300.817L155.467 301.371C155.467 301.371 155.063 299.921 154.393 299.914Z" fill="white"/>
</g>
<path d="M171 300.803H170.802L170.234 300.851L168.141 301.001C166.377 301.111 163.935 301.234 161.233 301.316C158.531 301.398 156.089 301.405 154.318 301.391H152.225H151.657H151.458H151.657H152.225H154.318C156.089 301.391 158.531 301.343 161.233 301.268C163.935 301.193 166.37 301.083 168.141 301.001L170.234 300.892H170.802L171 300.803Z" fill="#263238"/>
<path d="M155.461 301.549C155.355 301.204 155.213 300.871 155.037 300.557C154.826 300.268 154.58 300.006 154.305 299.777C154.655 299.919 154.954 300.165 155.16 300.482C155.367 300.799 155.472 301.171 155.461 301.549Z" fill="#263238"/>
<path d="M158.811 299.73C158.777 299.73 158.606 299.559 158.435 299.299C158.264 299.039 158.141 298.813 158.175 298.786C158.209 298.758 158.374 298.963 158.551 299.223C158.673 299.372 158.761 299.545 158.811 299.73Z" fill="#263238"/>
<path d="M159.727 299.21C159.727 299.244 159.515 299.128 159.317 298.95C159.119 298.772 158.968 298.615 158.989 298.587C159.009 298.56 159.201 298.669 159.406 298.847C159.611 299.025 159.755 299.182 159.727 299.21Z" fill="#263238"/>
<path d="M160.29 298.108C160.099 298.186 159.893 298.219 159.688 298.204C159.486 298.227 159.281 298.211 159.086 298.156C159.478 298.044 159.89 298.027 160.29 298.108Z" fill="#263238"/>
<path d="M160.467 297.335C160.268 297.478 160.028 297.553 159.783 297.547C159.553 297.59 159.316 297.566 159.099 297.479C159.325 297.435 159.553 297.412 159.783 297.41C160.009 297.368 160.238 297.343 160.467 297.335Z" fill="#263238"/>
<path d="M158.387 298.737C158.142 298.778 157.893 298.778 157.648 298.737C157.38 298.711 157.114 298.661 156.855 298.587C156.699 298.546 156.547 298.489 156.403 298.416C156.314 298.366 156.246 298.286 156.212 298.19C156.198 298.136 156.201 298.078 156.219 298.025C156.237 297.971 156.27 297.924 156.314 297.889C156.592 297.743 156.911 297.697 157.218 297.758C157.526 297.819 157.803 297.983 158.004 298.224C158.121 298.367 158.207 298.532 158.257 298.71C158.272 298.778 158.272 298.848 158.257 298.915C158.174 298.689 158.054 298.479 157.901 298.293C157.73 298.1 157.507 297.963 157.258 297.896C156.965 297.807 156.648 297.836 156.376 297.978C156.266 298.074 156.314 298.211 156.444 298.286C156.58 298.355 156.722 298.41 156.868 298.45C157.119 298.529 157.375 298.589 157.634 298.628C158.106 298.724 158.387 298.71 158.387 298.737Z" fill="#263238"/>
<path d="M158.202 298.778C158.102 298.628 158.065 298.443 158.1 298.265C158.118 298.071 158.182 297.884 158.285 297.718C158.345 297.607 158.432 297.513 158.539 297.444C158.645 297.376 158.767 297.336 158.893 297.328C158.969 297.342 159.037 297.384 159.081 297.447C159.126 297.509 159.145 297.587 159.133 297.663C159.115 297.781 159.075 297.895 159.016 297.998C158.922 298.163 158.807 298.314 158.674 298.45C158.566 298.588 158.425 298.696 158.264 298.765C158.264 298.765 158.408 298.628 158.606 298.388C158.716 298.246 158.815 298.095 158.9 297.937C158.996 297.773 159.057 297.492 158.9 297.465C158.743 297.438 158.531 297.643 158.421 297.793C158.323 297.94 158.256 298.105 158.223 298.279C158.197 298.444 158.19 298.612 158.202 298.778Z" fill="#263238"/>
<path d="M170.644 297.657C170.644 297.657 170.316 297.657 169.796 297.712C169.118 297.803 168.479 298.085 167.956 298.526C167.433 298.967 167.046 299.548 166.841 300.202C166.684 300.701 166.67 301.029 166.65 301.029C166.629 301.029 166.65 300.947 166.65 300.797C166.662 300.586 166.699 300.377 166.759 300.174C166.946 299.492 167.335 298.881 167.874 298.423C168.418 297.97 169.085 297.689 169.789 297.616C170.001 297.592 170.214 297.592 170.425 297.616C170.5 297.618 170.574 297.632 170.644 297.657Z" fill="#263238"/>
<path d="M169.318 292.896C169.423 293.68 169.478 294.471 169.482 295.262C169.531 296.05 169.531 296.841 169.482 297.629C169.381 296.846 169.326 296.058 169.318 295.269C169.274 294.478 169.274 293.686 169.318 292.896Z" fill="#263238"/>
<path d="M165.152 300.009C164.607 300.159 164.042 300.23 163.477 300.222C162.912 300.267 162.344 300.239 161.787 300.139C161.787 300.098 162.546 300.139 163.47 300.085C164.393 300.03 165.146 299.968 165.152 300.009Z" fill="#263238"/>
<path d="M167.409 299.948C167.409 299.948 167.354 300.105 167.279 300.283C167.204 300.461 167.17 300.611 167.129 300.611C167.088 300.611 167.067 300.426 167.129 300.228C167.19 300.03 167.382 299.92 167.409 299.948Z" fill="#263238"/>
<path d="M168.265 298.867C168.265 298.867 168.224 299.011 168.108 299.134C167.991 299.257 167.875 299.339 167.848 299.312C167.82 299.285 167.889 299.168 168.005 299.038C168.121 298.908 168.203 298.84 168.265 298.867Z" fill="#263238"/>
<path d="M169.434 298.347C169.434 298.388 169.277 298.388 169.106 298.45C168.935 298.512 168.818 298.614 168.791 298.587C168.764 298.559 168.853 298.395 169.058 298.32C169.263 298.245 169.448 298.313 169.434 298.347Z" fill="#263238"/>
<path d="M170.316 298.095C170.316 298.129 170.268 298.19 170.172 298.231C170.077 298.273 169.988 298.273 169.974 298.231C169.96 298.19 170.022 298.136 170.118 298.095C170.213 298.054 170.316 298.06 170.316 298.095Z" fill="#263238"/>
<path d="M131.328 265.631L133.996 260.091L144.413 265.029L140.59 273.176L139.906 272.909C136.958 271.712 124.994 266.589 123.353 265.098C121.533 263.436 131.328 265.631 131.328 265.631Z" fill="#FF7C44"/>
<g opacity="0.5">
<path d="M136.849 271.303C137.42 270.499 138.268 269.934 139.229 269.716C140.177 269.494 141.172 269.635 142.02 270.112L140.652 273.026L136.849 271.303Z" fill="white"/>
</g>
<g opacity="0.4">
<path d="M126.466 264.708C126.466 264.708 122.944 264.134 123.087 264.825C123.231 265.516 135.119 271.145 140.584 273.17L140.68 272.93L126.754 266.48C126.754 266.48 127.061 265.023 126.466 264.708Z" fill="white"/>
</g>
<path d="M140.843 273.005C140.778 272.994 140.716 272.973 140.658 272.943L140.124 272.731L138.168 271.917C136.54 271.233 134.31 270.221 131.862 269.065C129.413 267.909 127.231 266.822 125.665 266.008L123.804 265.036L123.305 264.763L123.134 264.653L123.318 264.735L123.831 264.982L125.706 265.919C127.293 266.705 129.481 267.786 131.923 268.942C134.365 270.098 136.588 271.103 138.209 271.822L140.118 272.677L140.637 272.916L140.843 273.005Z" fill="#263238"/>
<path d="M126.676 266.651C126.742 266.299 126.767 265.941 126.752 265.584C126.687 265.23 126.586 264.884 126.451 264.551C126.713 264.827 126.869 265.189 126.888 265.57C126.955 265.944 126.88 266.33 126.676 266.651Z" fill="#263238"/>
<path d="M130.487 266.549C130.446 266.549 130.384 266.302 130.35 265.994C130.316 265.687 130.309 265.427 130.35 265.42C130.434 265.593 130.481 265.782 130.487 265.974C130.528 266.289 130.528 266.542 130.487 266.549Z" fill="#263238"/>
<path d="M131.54 266.5C131.506 266.5 131.397 266.329 131.287 266.083C131.178 265.837 131.13 265.625 131.171 265.611C131.212 265.597 131.314 265.782 131.417 266.028C131.52 266.275 131.574 266.487 131.54 266.5Z" fill="#263238"/>
<path d="M132.54 265.769C132.337 265.751 132.141 265.688 131.966 265.584C131.771 265.52 131.593 265.412 131.446 265.27C131.649 265.288 131.845 265.351 132.02 265.454C132.328 265.598 132.561 265.735 132.54 265.769Z" fill="#263238"/>
<path d="M133.052 265.166C132.817 265.174 132.582 265.135 132.362 265.05C132.143 264.966 131.942 264.838 131.773 264.674C132.199 264.84 132.625 265.004 133.052 265.166Z" fill="#263238"/>
<path d="M130.562 265.474C130.317 265.408 130.085 265.299 129.878 265.152C129.65 265.008 129.434 264.843 129.235 264.66C129.116 264.549 129.006 264.427 128.907 264.297C128.85 264.213 128.828 264.11 128.845 264.01C128.856 263.955 128.883 263.904 128.924 263.865C128.964 263.826 129.016 263.8 129.071 263.791C129.275 263.788 129.477 263.829 129.662 263.914C129.848 263.998 130.012 264.123 130.143 264.279C130.275 264.435 130.369 264.618 130.42 264.816C130.471 265.013 130.478 265.219 130.439 265.419C130.439 265.542 130.378 265.611 130.371 265.604C130.399 265.376 130.388 265.144 130.337 264.92C130.267 264.673 130.13 264.45 129.94 264.277C129.832 264.171 129.703 264.087 129.562 264.032C129.421 263.977 129.27 263.951 129.119 263.955C128.975 263.955 128.955 264.126 129.044 264.25C129.131 264.373 129.229 264.487 129.338 264.592C129.528 264.776 129.731 264.945 129.947 265.098C130.316 265.33 130.576 265.453 130.562 265.474Z" fill="#263238"/>
<path d="M130.377 265.427C130.358 265.247 130.407 265.067 130.514 264.921C130.621 264.757 130.764 264.619 130.931 264.517C131.035 264.445 131.155 264.4 131.281 264.387C131.406 264.374 131.533 264.393 131.649 264.442C131.71 264.489 131.751 264.559 131.762 264.635C131.774 264.711 131.755 264.789 131.711 264.852C131.644 264.949 131.558 265.031 131.458 265.092C131.299 265.2 131.126 265.287 130.945 265.352C130.785 265.42 130.612 265.45 130.439 265.441C130.439 265.441 130.623 265.386 130.911 265.256C131.077 265.184 131.235 265.094 131.383 264.989C131.54 264.893 131.725 264.668 131.567 264.558C131.472 264.528 131.371 264.519 131.272 264.532C131.172 264.545 131.077 264.58 130.993 264.634C130.84 264.722 130.706 264.838 130.596 264.976C130.506 265.117 130.432 265.269 130.377 265.427Z" fill="#263238"/>
<path d="M141.979 270.057C141.979 270.057 141.698 269.886 141.199 269.722C140.554 269.499 139.858 269.463 139.194 269.62C138.529 269.776 137.922 270.117 137.444 270.604C137.067 270.974 136.91 271.288 136.89 271.254C136.912 271.178 136.947 271.106 136.992 271.042C137.1 270.861 137.226 270.691 137.368 270.536C137.846 270.012 138.47 269.646 139.16 269.483C139.85 269.321 140.572 269.371 141.233 269.626C141.43 269.702 141.618 269.798 141.794 269.913C141.924 269.995 141.985 270.05 141.979 270.057Z" fill="#263238"/>
<path d="M142.956 265.215C142.691 265.96 142.383 266.688 142.033 267.397C141.725 268.123 141.376 268.831 140.986 269.517C141.251 268.772 141.559 268.044 141.91 267.335C142.214 266.607 142.563 265.899 142.956 265.215Z" fill="#263238"/>
<path d="M136.014 269.667C135.462 269.548 134.928 269.358 134.427 269.099C133.903 268.881 133.409 268.598 132.956 268.258C132.956 268.224 133.64 268.586 134.481 268.976C135.323 269.366 136.027 269.633 136.014 269.667Z" fill="#263238"/>
<path d="M138.059 270.631C138.059 270.673 137.936 270.748 137.792 270.871C137.648 270.994 137.546 271.117 137.512 271.097C137.477 271.076 137.512 270.905 137.703 270.768C137.895 270.631 138.052 270.597 138.059 270.631Z" fill="#263238"/>
<path d="M139.284 270.037C139.284 270.078 139.174 270.153 139.017 270.208C138.86 270.263 138.716 270.29 138.702 270.249C138.689 270.208 138.812 270.139 138.969 270.078C139.126 270.016 139.27 270.003 139.284 270.037Z" fill="#263238"/>
<path d="M140.589 270.126C140.589 270.126 140.425 270.085 140.247 270.071C140.069 270.057 139.918 270.071 139.905 270.071C139.891 270.071 140.041 269.934 140.267 269.962C140.493 269.989 140.616 270.098 140.589 270.126Z" fill="#263238"/>
<path d="M141.473 270.29C141.473 270.29 141.384 270.352 141.281 270.345C141.179 270.338 141.097 270.297 141.103 270.263C141.11 270.228 141.192 270.194 141.288 270.201C141.384 270.208 141.473 270.249 141.473 270.29Z" fill="#263238"/>
<path d="M207.252 185.131L204.803 172.819C203.024 162.792 188.934 162.108 188.934 162.108L177.84 161.923C177.84 161.923 169.632 160.822 164.577 166.527C159.344 172.43 152.908 179.413 152.908 179.413L157.819 191.773L169.447 182.197C168.474 183.903 167.939 185.823 167.887 187.785C167.887 191.062 171.307 192.573 171.307 192.573L172.368 202.512L168.948 218.606L205.07 217.156C204.46 211.758 202.633 206.568 199.728 201.978L200.412 185.131H207.252Z" fill="#FF7C44"/>
<path d="M191.774 171.363C191.871 171.616 191.935 171.881 191.965 172.15C192.082 172.731 192.218 173.449 192.389 174.304C192.759 176.206 193.238 178.682 193.757 181.418C194.277 184.154 194.742 186.726 195.03 188.559C195.18 189.476 195.283 190.221 195.344 190.734C195.394 191 195.41 191.271 195.392 191.541C195.302 191.287 195.24 191.023 195.208 190.755C195.091 190.173 194.948 189.455 194.783 188.6C194.414 186.699 193.935 184.222 193.415 181.486C192.896 178.75 192.43 176.185 192.143 174.346C191.993 173.429 191.89 172.69 191.829 172.17C191.784 171.904 191.766 171.633 191.774 171.363Z" fill="#263238"/>
<path d="M207.464 184.489C205.245 184.679 203.016 184.748 200.789 184.694C198.562 184.76 196.334 184.708 194.113 184.537C196.333 184.351 198.561 184.285 200.789 184.339C203.015 184.273 205.243 184.323 207.464 184.489Z" fill="#263238"/>
<path d="M208.839 195.625C208.155 189.729 207.177 184.681 207.177 184.681H194.386C194.386 184.681 195.973 192.205 195.624 193.915C195.31 195.426 170.528 196.425 164.071 196.528C163.682 196.24 163.128 196.726 162.628 196.288C162.187 195.897 161.815 195.434 161.527 194.92C161.146 194.296 160.849 193.625 160.645 192.923C160.62 192.791 160.558 192.67 160.466 192.574C160.374 192.477 160.255 192.41 160.125 192.38C159.994 192.35 159.858 192.359 159.733 192.406C159.608 192.452 159.499 192.535 159.42 192.642C159.16 193.196 159.454 195.036 160.679 196.815C161.903 198.593 158.688 197.67 157.512 197.355C156.335 197.041 152.642 196.24 152.266 196.534C151.705 196.965 152.054 197.656 153.237 197.943C154.42 198.231 157.915 199.311 157.724 199.995C157.532 200.679 151.568 198.922 151.568 198.922C151.568 198.922 150.35 198.354 150.104 199.072C149.666 200.372 156.144 201.685 156.766 201.808C157.197 201.89 157.013 202.581 156.554 202.492C156.096 202.403 150.631 200.666 150.173 201.986C149.817 202.998 155.494 203.121 156.431 204.12C157.368 205.119 152.136 203.58 151.835 204.558C151.725 204.927 153.887 205.091 157.033 205.536C160.25 205.843 163.482 205.957 166.712 205.878C173.969 206.275 199.633 206.808 205.111 206.418C211.486 205.933 209.086 197.677 208.839 195.625Z" fill="#FFBE9D"/>
<path d="M168.195 185.48C168.295 184.917 168.441 184.364 168.633 183.825C168.784 183.312 168.968 182.71 169.201 182.047C169.317 181.718 169.447 181.363 169.591 181.014C169.673 180.822 169.775 180.658 169.823 180.501C169.877 180.328 169.901 180.148 169.892 179.967C169.858 179.586 169.801 179.206 169.721 178.832C169.652 178.462 169.584 178.107 169.515 177.758C169.406 177.074 169.297 176.486 169.201 175.925C169.074 175.366 169.005 174.795 168.996 174.222C169.205 174.756 169.357 175.311 169.447 175.877C169.57 176.431 169.7 177.04 169.837 177.69L170.063 178.77C170.156 179.161 170.218 179.559 170.247 179.96C170.259 180.181 170.229 180.401 170.158 180.61C170.087 180.795 170.005 180.975 169.912 181.151C169.769 181.493 169.632 181.835 169.509 182.163C169.283 182.785 169.064 183.367 168.872 183.9C168.713 184.453 168.486 184.984 168.195 185.48Z" fill="#263238"/>
<path d="M183.107 138.853C184.092 140.125 185.159 141.589 184.947 143.182C184.776 144.55 183.661 145.816 183.846 147.211C184.065 148.818 185.898 149.872 186.021 151.493C186.097 152.861 184.941 153.873 184.127 154.913C183.529 155.682 183.09 156.561 182.832 157.5C182.575 158.439 182.506 159.419 182.629 160.385C182.763 161.345 183.115 162.263 183.656 163.067C184.198 163.872 184.915 164.543 185.755 165.029C186.605 165.5 187.563 165.742 188.535 165.733C189.507 165.723 190.461 165.462 191.302 164.975C192.785 163.94 193.865 162.425 194.359 160.686C195.125 158.483 195.331 155.898 194.024 153.955C193.491 153.176 192.718 152.505 192.547 151.575C192.328 150.398 193.162 149.29 193.292 148.1C193.47 146.507 192.369 145.05 191.151 143.996C189.934 142.943 188.497 142.108 187.588 140.788" fill="#263238"/>
<g opacity="0.3">
<path d="M192.205 174.694C192.65 181.534 192.889 187.861 193.053 194.722C193.966 194.682 194.853 194.404 195.625 193.915C195.974 190.987 193.758 182.075 192.205 174.694Z" fill="black"/>
</g>
<path d="M175.529 171.541C175.429 171.019 175.484 170.479 175.686 169.988C175.919 169.154 176.281 168.545 176.37 168.586C176.34 169.101 176.225 169.607 176.028 170.084C175.94 170.593 175.771 171.085 175.529 171.541Z" fill="#FAFAFA"/>
<path d="M168.264 171.52C168.209 171.602 167.723 171.363 167.251 170.912C166.779 170.46 166.506 169.988 166.567 169.933C166.629 169.879 167.025 170.228 167.477 170.652C167.928 171.076 168.311 171.438 168.264 171.52Z" fill="#FAFAFA"/>
<path d="M161.323 177.197C161.323 177.197 161.261 177.136 161.22 177.013H161.377C161.484 177.571 161.484 178.144 161.377 178.702C161.337 179.341 161.097 179.95 160.693 180.446C160.774 179.837 160.895 179.234 161.056 178.641C161.179 177.957 161.206 177.314 161.247 177.02H161.405C161.364 177.156 161.35 177.191 161.323 177.197Z" fill="#FAFAFA"/>
<path d="M161.014 184.298C160.492 184.276 159.981 184.141 159.516 183.901C158.723 183.593 158.107 183.272 158.148 183.176C158.673 183.196 159.187 183.332 159.653 183.573C160.433 183.88 161.049 184.202 161.014 184.298Z" fill="#FAFAFA"/>
<path d="M166.897 180.364C166.802 180.364 166.815 179.749 167.041 179.044C167.267 178.34 167.581 177.833 167.67 177.874C167.759 177.915 167.588 178.469 167.376 179.147C167.164 179.824 166.966 180.378 166.897 180.364Z" fill="#FAFAFA"/>
<path d="M173.053 164.797C173.053 164.892 172.54 164.995 171.897 165.029C171.254 165.063 170.734 165.029 170.728 164.906C170.721 164.783 171.241 164.701 171.884 164.674C172.527 164.646 173.053 164.694 173.053 164.797Z" fill="#FAFAFA"/>
<path d="M174.304 178.155C174.242 178.223 173.688 177.813 173.319 177.06C173.042 176.631 172.944 176.111 173.045 175.61C173.148 175.61 173.291 176.219 173.633 176.903C173.975 177.587 174.379 178.08 174.304 178.155Z" fill="#FAFAFA"/>
<path d="M186.453 175.289C186.521 175.357 186.09 175.904 185.44 176.465C184.791 177.026 184.182 177.368 184.127 177.286C184.072 177.204 184.572 176.739 185.208 176.191C185.844 175.644 186.384 175.22 186.453 175.289Z" fill="#FAFAFA"/>
<path d="M180.446 173.401C180.501 173.483 180.125 173.859 179.598 174.249C179.072 174.639 178.593 174.899 178.538 174.817C178.483 174.735 178.859 174.359 179.386 173.969C179.913 173.579 180.385 173.326 180.446 173.401Z" fill="#FAFAFA"/>
<path d="M183.395 168.49C182.839 168.373 182.331 168.092 181.938 167.682C181.254 167.074 180.836 166.417 180.918 166.362C181.001 166.308 181.493 166.834 182.17 167.409C182.847 167.983 183.442 168.401 183.395 168.49Z" fill="#FAFAFA"/>
<path d="M190.309 166.574C190.364 166.65 189.981 167.046 189.44 167.45C188.9 167.853 188.414 168.134 188.353 168.052C188.291 167.97 188.681 167.58 189.221 167.169C189.762 166.759 190.247 166.492 190.309 166.574Z" fill="#FAFAFA"/>
<path d="M196.083 169.31C196.074 168.816 196.148 168.323 196.302 167.853C196.459 167.067 196.562 166.417 196.665 166.424C196.816 166.912 196.816 167.434 196.665 167.922C196.494 168.743 196.172 169.345 196.083 169.31Z" fill="#FAFAFA"/>
<path d="M197.101 175.898C197.033 175.966 196.417 175.508 195.733 174.865C195.049 174.222 194.523 173.648 194.591 173.579C194.659 173.511 195.275 173.962 195.959 174.605C196.643 175.248 197.17 175.823 197.101 175.898Z" fill="#FAFAFA"/>
<path d="M201.78 173.128C201.691 173.087 201.869 172.444 202.176 171.76C202.484 171.076 202.813 170.474 202.902 170.515C202.877 170.995 202.741 171.463 202.505 171.883C202.19 172.608 201.862 173.169 201.78 173.128Z" fill="#FAFAFA"/>
<path d="M202.02 181.042C202.137 180.469 202.37 179.927 202.704 179.448C202.934 178.917 203.267 178.436 203.682 178.032C203.566 178.603 203.333 179.143 202.998 179.619C202.769 180.153 202.437 180.637 202.02 181.042Z" fill="#FAFAFA"/>
<path d="M197.409 182.252C197.327 182.313 196.862 181.821 196.356 181.15C195.85 180.48 195.514 179.899 195.59 179.837C195.665 179.776 196.144 180.268 196.643 180.938C197.142 181.609 197.484 182.19 197.409 182.252Z" fill="#FAFAFA"/>
<path d="M188.708 185.638C188.873 184.921 189.193 184.248 189.646 183.668C190.003 183.027 190.498 182.473 191.096 182.047C190.776 182.691 190.391 183.301 189.947 183.866C189.595 184.497 189.18 185.091 188.708 185.638Z" fill="#FAFAFA"/>
<path d="M182.457 185.009C182.038 184.548 181.711 184.012 181.492 183.429C181.169 182.895 180.949 182.306 180.842 181.691C181.586 182.685 182.134 183.81 182.457 185.009Z" fill="#FAFAFA"/>
<path d="M174.584 183.176C174.192 183.747 173.707 184.249 173.148 184.66C172.668 185.16 172.106 185.574 171.486 185.884C171.418 185.809 172.061 185.146 172.916 184.393C173.397 183.894 173.962 183.482 174.584 183.176Z" fill="#FAFAFA"/>
<path d="M177.574 191.725C177.491 191.787 176.931 191.151 176.206 190.412C175.48 189.673 174.838 189.099 174.899 189.044C175.505 189.281 176.045 189.661 176.472 190.152C176.963 190.578 177.341 191.118 177.574 191.725Z" fill="#FAFAFA"/>
<path d="M183.086 191.986C183.126 191.36 183.336 190.756 183.695 190.242C184.208 189.352 184.831 188.778 184.899 188.874C184.653 189.422 184.351 189.942 183.996 190.426C183.747 190.976 183.443 191.499 183.086 191.986Z" fill="#FAFAFA"/>
<path d="M190.837 192.888C190.21 192.593 189.639 192.193 189.147 191.705C188.58 191.304 188.083 190.812 187.677 190.248C188.305 190.543 188.879 190.943 189.373 191.431C189.939 191.832 190.434 192.324 190.837 192.888Z" fill="#FAFAFA"/>
<path d="M190.152 172.519C189.616 172.432 189.116 172.195 188.709 171.835C187.984 171.308 187.54 170.727 187.608 170.658C187.676 170.59 188.224 171.041 188.921 171.547C189.619 172.054 190.152 172.43 190.152 172.519Z" fill="#FAFAFA"/>
<path d="M178.956 207.574C178.997 207.67 178.443 207.964 177.828 208.422C177.212 208.88 176.754 209.311 176.679 209.25C176.603 209.188 176.952 208.62 177.616 208.135C178.279 207.649 178.929 207.485 178.956 207.574Z" fill="#FAFAFA"/>
<path d="M187.233 210.953C186.636 210.029 186.251 208.985 186.104 207.896C186.697 208.821 187.083 209.864 187.233 210.953Z" fill="#FAFAFA"/>
<path d="M195.577 207.998C195.653 208.066 195.222 208.627 194.627 209.25C194.032 209.872 193.491 210.323 193.423 210.255C193.354 210.187 193.778 209.626 194.374 209.003C194.969 208.381 195.509 207.936 195.577 207.998Z" fill="#FAFAFA"/>
<path d="M201.779 212.499C201.704 212.574 201.15 212.136 200.329 211.979C199.508 211.821 198.831 211.979 198.797 211.89C199.026 211.724 199.291 211.614 199.57 211.569C199.849 211.524 200.135 211.545 200.404 211.63C201.307 211.815 201.827 212.444 201.779 212.499Z" fill="#FAFAFA"/>
<path d="M205.151 215.543C205.151 215.543 157.914 205.645 153.338 207.813C148.763 209.982 127.675 262.109 127.675 262.109L144.659 269.414L162.928 225.119C162.928 225.119 196 237.198 201.779 235.981C207.559 234.763 205.151 215.543 205.151 215.543Z" fill="#455A64"/>
<path d="M184.037 218.319C183.319 218.559 155.993 229.797 154.064 233.402C152.135 237.006 156.869 296.973 156.869 296.973H172.409L171.451 243.682L201.78 235.98L184.037 218.319Z" fill="#455A64"/>
<path d="M201.937 236.124C201.787 236.118 201.638 236.1 201.492 236.069L200.22 235.843C199.119 235.638 197.525 235.324 195.562 234.906C191.643 234.079 186.239 232.854 180.357 231.137C177.415 230.289 174.638 229.4 172.149 228.538C169.659 227.676 167.408 226.815 165.568 226.028C164.638 225.652 163.811 225.276 163.086 224.947C162.36 224.619 161.718 224.339 161.232 224.079L160.083 223.497C159.943 223.436 159.81 223.361 159.686 223.271C159.832 223.315 159.973 223.37 160.11 223.436L161.293 223.955C161.8 224.188 162.429 224.462 163.161 224.769C163.893 225.077 164.727 225.453 165.657 225.795C167.511 226.555 169.761 227.355 172.258 228.23C174.755 229.106 177.538 229.947 180.466 230.795C186.342 232.485 191.725 233.771 195.63 234.66L200.261 235.707L201.519 235.994C201.663 236.023 201.802 236.066 201.937 236.124Z" fill="#263238"/>
<path d="M154.072 247.177C153.995 246.884 153.947 246.584 153.928 246.281C153.86 245.631 153.771 244.804 153.668 243.819C153.566 242.834 153.456 241.527 153.333 240.173C153.124 238.673 153.124 237.151 153.333 235.652C153.636 234.136 154.432 232.762 155.597 231.746C156.524 230.92 157.574 230.244 158.709 229.742C159.462 229.399 160.231 229.096 161.014 228.832C161.297 228.719 161.59 228.634 161.89 228.579C161.89 228.641 160.686 229.072 158.819 229.947C157.724 230.462 156.714 231.14 155.823 231.958C154.726 232.94 153.975 234.25 153.682 235.693C153.491 237.162 153.491 238.649 153.682 240.118C153.785 241.486 153.873 242.711 153.949 243.771C154.024 244.831 154.058 245.59 154.092 246.24C154.12 246.552 154.113 246.866 154.072 247.177Z" fill="#263238"/>
<path d="M167.704 242.027C169.016 242.347 170.262 242.896 171.384 243.648C170.072 243.326 168.827 242.777 167.704 242.027Z" fill="#263238"/>
<path d="M169.079 240.385C169.522 240.947 169.935 241.531 170.317 242.136C171.001 243.073 171.733 243.723 171.685 243.805C171.016 243.48 170.45 242.976 170.05 242.348C169.547 241.799 169.21 241.118 169.079 240.385Z" fill="#263238"/>
<path d="M175.044 242.82C175.044 242.82 174.996 242.95 174.804 243.067C174.527 243.214 174.216 243.287 173.902 243.279C173.47 243.264 173.039 243.275 172.609 243.313C172.378 243.347 172.17 243.468 172.026 243.651C171.882 243.834 171.814 244.066 171.836 244.298C171.888 245.685 171.824 247.073 171.644 248.45C171.469 247.066 171.414 245.67 171.48 244.277C171.484 243.96 171.586 243.651 171.774 243.395C171.976 243.168 172.253 243.022 172.554 242.984C173.01 242.96 173.468 242.973 173.922 243.026C174.307 243.054 174.694 242.983 175.044 242.82Z" fill="#263238"/>
<path opacity="0.3" d="M171.315 207.506L203.511 210.091L202.136 206.487L171.63 206.049L171.315 207.506Z" fill="black"/>
<path d="M258.456 200.439H68.6533V205.501H78.8039L73.5713 301.767L76.4578 301.925L81.704 205.501H248.108L252.567 301.849H255.467L251.001 205.501H258.456V200.439Z" fill="#263238"/>
<path d="M124.009 170.508L134.536 201.26H182.197L181.841 199.68L162.573 199.078L153.695 170.487L124.009 170.508Z" fill="#263238"/>
<path d="M145.132 184.947C145.447 186.212 144.906 187.444 143.928 187.683C142.95 187.922 141.876 187.136 141.582 185.87C141.288 184.605 141.808 183.381 142.786 183.134C143.764 182.888 144.817 183.688 145.132 184.947Z" fill="white"/>
</svg>
